G04*
G04 #@! TF.GenerationSoftware,Altium Limited,CircuitMaker,2.2.1 (6)*
G04*
G04 Layer_Color=15138737*
%FSLAX25Y25*%
%MOIN*%
G70*
G04*
G04 #@! TF.SameCoordinates,9BB8909F-1235-4B7E-8516-07DB857BAA42*
G04*
G04*
G04 #@! TF.FilePolarity,Positive*
G04*
G01*
G75*
%ADD49C,0.00394*%
D49*
X369732Y262051D02*
G03*
X369732Y262051I-1969J0D01*
G01*
X440205Y331449D02*
G03*
X440205Y331449I-1969J0D01*
G01*
X364220Y258508D02*
X441780D01*
X364220Y284492D02*
X441780D01*
X364220Y258508D02*
Y284492D01*
X441780Y258508D02*
Y284492D01*
X364220Y334992D02*
X441780D01*
X364220Y309008D02*
X441780D01*
Y334992D01*
X364220Y309008D02*
Y334992D01*
X556146Y222736D02*
X566854D01*
X556146Y202264D02*
Y222736D01*
X566854Y202264D02*
Y222736D01*
X556146Y202264D02*
X566854D01*
X514146Y223236D02*
X524854D01*
X514146Y202764D02*
Y223236D01*
X524854Y202764D02*
Y223236D01*
X514146Y202764D02*
X524854D01*
X473646Y224736D02*
X484354D01*
X473646Y204264D02*
Y224736D01*
X484354Y204264D02*
Y224736D01*
X473646Y204264D02*
X484354D01*
X430146Y224236D02*
X440854D01*
X430146Y203764D02*
Y224236D01*
X440854Y203764D02*
Y224236D01*
X430146Y203764D02*
X440854D01*
X301646Y225236D02*
X312354D01*
X301646Y204764D02*
Y225236D01*
X312354Y204764D02*
Y225236D01*
X301646Y204764D02*
X312354D01*
X344646Y225236D02*
X355354D01*
X344646Y204764D02*
Y225236D01*
X355354Y204764D02*
Y225236D01*
X344646Y204764D02*
X355354D01*
X388646Y224736D02*
X399354D01*
X388646Y204264D02*
Y224736D01*
X399354Y204264D02*
Y224736D01*
X388646Y204264D02*
X399354D01*
X257646Y225236D02*
X268354D01*
X257646Y204764D02*
Y225236D01*
X268354Y204764D02*
Y225236D01*
X257646Y204764D02*
X268354D01*
X258646Y373764D02*
X269354D01*
Y394236D01*
X258646Y373764D02*
Y394236D01*
X269354D01*
X552146Y373264D02*
X562854D01*
Y393736D01*
X552146Y373264D02*
Y393736D01*
X562854D01*
X513146Y373264D02*
X523854D01*
Y393736D01*
X513146Y373264D02*
Y393736D01*
X523854D01*
X469146Y372264D02*
X479854D01*
Y392736D01*
X469146Y372264D02*
Y392736D01*
X479854D01*
X426146Y372764D02*
X436854D01*
Y393236D01*
X426146Y372764D02*
Y393236D01*
X436854D01*
X383646Y372264D02*
X394354D01*
Y392736D01*
X383646Y372264D02*
Y392736D01*
X394354D01*
X299646Y373764D02*
X310354D01*
Y394236D01*
X299646Y373764D02*
Y394236D01*
X310354D01*
X341646Y372264D02*
X352354D01*
Y392736D01*
X341646Y372264D02*
Y392736D01*
X352354D01*
M02*
