G04*
G04 #@! TF.GenerationSoftware,Altium Limited,CircuitMaker,2.2.1 (6)*
G04*
G04 Layer_Color=15132400*
%FSLAX25Y25*%
%MOIN*%
G70*
G04*
G04 #@! TF.SameCoordinates,9BB8909F-1235-4B7E-8516-07DB857BAA42*
G04*
G04*
G04 #@! TF.FilePolarity,Positive*
G04*
G01*
G75*
%ADD10C,0.00984*%
%ADD11C,0.00787*%
%ADD12C,0.02362*%
%ADD13C,0.00500*%
%ADD14C,0.01000*%
%ADD15R,0.10698X0.03736*%
D10*
X582778Y423251D02*
G03*
X582778Y423251I-492J0D01*
G01*
X496378Y423551D02*
G03*
X496378Y423551I-492J0D01*
G01*
X363374Y256500D02*
G03*
X363374Y256500I-492J0D01*
G01*
X443610Y337000D02*
G03*
X443610Y337000I-492J0D01*
G01*
X324778Y423251D02*
G03*
X324778Y423251I-492J0D01*
G01*
X584978Y185651D02*
G03*
X584978Y185651I-492J0D01*
G01*
X542378D02*
G03*
X542378Y185651I-492J0D01*
G01*
X499778Y186851D02*
G03*
X499778Y186851I-492J0D01*
G01*
X456878Y188051D02*
G03*
X456878Y188051I-492J0D01*
G01*
X413378D02*
G03*
X413378Y188051I-492J0D01*
G01*
X370878D02*
G03*
X370878Y188051I-492J0D01*
G01*
X327778D02*
G03*
X327778Y188051I-492J0D01*
G01*
X284378D02*
G03*
X284378Y188051I-492J0D01*
G01*
X539978Y423251D02*
G03*
X539978Y423251I-492J0D01*
G01*
X454178Y423851D02*
G03*
X454178Y423851I-492J0D01*
G01*
X411178D02*
G03*
X411178Y423851I-492J0D01*
G01*
X367978D02*
G03*
X367978Y423851I-492J0D01*
G01*
X281178Y423551D02*
G03*
X281178Y423551I-492J0D01*
G01*
D11*
X364220Y269000D02*
G03*
X364220Y274000I0J2500D01*
G01*
X441780Y324500D02*
G03*
X441780Y319500I0J-2500D01*
G01*
X242297Y278750D02*
X256903D01*
Y320089D01*
X242297Y278750D02*
Y320089D01*
X256903D01*
X364220Y261067D02*
X441780D01*
X364220Y281933D02*
X441780D01*
X364220Y261067D02*
Y269000D01*
Y274000D02*
Y281933D01*
X441780Y261067D02*
Y281933D01*
X364220Y332433D02*
X441780D01*
X364220Y311567D02*
X441780D01*
Y324500D02*
Y332433D01*
Y311567D02*
Y319500D01*
X364220Y311567D02*
Y332433D01*
X556146Y202264D02*
Y222736D01*
Y202264D02*
X566854D01*
Y222736D01*
X556146D02*
X566854D01*
X514146Y202764D02*
Y223236D01*
Y202764D02*
X524854D01*
Y223236D01*
X514146D02*
X524854D01*
X473646Y204264D02*
Y224736D01*
Y204264D02*
X484354D01*
Y224736D01*
X473646D02*
X484354D01*
X430146Y203764D02*
Y224236D01*
Y203764D02*
X440854D01*
Y224236D01*
X430146D02*
X440854D01*
X301646Y204764D02*
Y225236D01*
Y204764D02*
X312354D01*
Y225236D01*
X301646D02*
X312354D01*
X344646Y204764D02*
Y225236D01*
Y204764D02*
X355354D01*
Y225236D01*
X344646D02*
X355354D01*
X388646Y204264D02*
Y224736D01*
Y204264D02*
X399354D01*
Y224736D01*
X388646D02*
X399354D01*
X257646Y204764D02*
Y225236D01*
Y204764D02*
X268354D01*
Y225236D01*
X257646D02*
X268354D01*
X269354Y373764D02*
Y394236D01*
X258646D02*
X269354D01*
X258646Y373764D02*
Y394236D01*
Y373764D02*
X269354D01*
X562854Y373264D02*
Y393736D01*
X552146D02*
X562854D01*
X552146Y373264D02*
Y393736D01*
Y373264D02*
X562854D01*
X523854D02*
Y393736D01*
X513146D02*
X523854D01*
X513146Y373264D02*
Y393736D01*
Y373264D02*
X523854D01*
X479854Y372264D02*
Y392736D01*
X469146D02*
X479854D01*
X469146Y372264D02*
Y392736D01*
Y372264D02*
X479854D01*
X436854Y372764D02*
Y393236D01*
X426146D02*
X436854D01*
X426146Y372764D02*
Y393236D01*
Y372764D02*
X436854D01*
X394354Y372264D02*
Y392736D01*
X383646D02*
X394354D01*
X383646Y372264D02*
Y392736D01*
Y372264D02*
X394354D01*
X310354Y373764D02*
Y394236D01*
X299646D02*
X310354D01*
X299646Y373764D02*
Y394236D01*
Y373764D02*
X310354D01*
X352354Y372264D02*
Y392736D01*
X341646D02*
X352354D01*
X341646Y372264D02*
Y392736D01*
Y372264D02*
X352354D01*
D12*
X369339Y265004D02*
G03*
X369339Y265004I-1181J0D01*
G01*
X439024Y328496D02*
G03*
X439024Y328496I-1181J0D01*
G01*
D13*
X264975Y152460D02*
Y161960D01*
X274725Y152460D02*
Y161960D01*
X255225Y152460D02*
X274725D01*
X255225D02*
Y161960D01*
X274725D01*
X307375Y152360D02*
Y161860D01*
X317125Y152360D02*
Y161860D01*
X297625Y152360D02*
X317125D01*
X297625D02*
Y161860D01*
X317125D01*
X346875Y152860D02*
Y162360D01*
X356625Y152860D02*
Y162360D01*
X337125Y152860D02*
X356625D01*
X337125D02*
Y162360D01*
X356625D01*
X390875Y152360D02*
Y161860D01*
X400625Y152360D02*
Y161860D01*
X381125Y152360D02*
X400625D01*
X381125D02*
Y161860D01*
X400625D01*
X432875Y152360D02*
Y161860D01*
X442625Y152360D02*
Y161860D01*
X423125Y152360D02*
X442625D01*
X423125D02*
Y161860D01*
X442625D01*
X475375Y152360D02*
Y161860D01*
X485125Y152360D02*
Y161860D01*
X465625Y152360D02*
X485125D01*
X465625D02*
Y161860D01*
X485125D01*
X517375Y152360D02*
Y161860D01*
X527125Y152360D02*
Y161860D01*
X507625Y152360D02*
X527125D01*
X507625D02*
Y161860D01*
X527125D01*
X559875Y152360D02*
Y161860D01*
X569625Y152360D02*
Y161860D01*
X550125Y152360D02*
X569625D01*
X550125D02*
Y161860D01*
X569625D01*
X300725Y453660D02*
X320225D01*
X300725Y444160D02*
Y453660D01*
Y444160D02*
X320225D01*
Y453660D01*
X310475Y444160D02*
Y453660D01*
X340725D02*
X360225D01*
X340725Y444160D02*
Y453660D01*
Y444160D02*
X360225D01*
Y453660D01*
X350475Y444160D02*
Y453660D01*
X382225Y453160D02*
X401725D01*
X382225Y443660D02*
Y453160D01*
Y443660D02*
X401725D01*
Y453160D01*
X391975Y443660D02*
Y453160D01*
X424725Y452660D02*
X444225D01*
X424725Y443160D02*
Y452660D01*
Y443160D02*
X444225D01*
Y452660D01*
X434475Y443160D02*
Y452660D01*
X466725D02*
X486225D01*
X466725Y443160D02*
Y452660D01*
Y443160D02*
X486225D01*
Y452660D01*
X476475Y443160D02*
Y452660D01*
X509725Y452160D02*
X529225D01*
X509725Y442660D02*
Y452160D01*
Y442660D02*
X529225D01*
Y452160D01*
X519475Y442660D02*
Y452160D01*
X552725Y451660D02*
X572225D01*
X552725Y442160D02*
Y451660D01*
Y442160D02*
X572225D01*
Y451660D01*
X562475Y442160D02*
Y451660D01*
X257225Y454160D02*
X276725D01*
X257225Y444660D02*
Y454160D01*
Y444660D02*
X276725D01*
Y454160D01*
X266975Y444660D02*
Y454160D01*
D14*
X266599Y286798D02*
X265599Y287798D01*
X263600D01*
X262600Y286798D01*
Y282800D01*
X263600Y281800D01*
X265599D01*
X266599Y282800D01*
X268598Y287798D02*
Y281800D01*
X272597D01*
X274596Y287798D02*
Y281800D01*
Y283799D01*
X278595Y287798D01*
X275596Y284799D01*
X278595Y281800D01*
X263200Y302798D02*
Y296800D01*
X267199D01*
X269198D02*
Y300799D01*
X271197Y302798D01*
X273197Y300799D01*
Y296800D01*
Y299799D01*
X269198D01*
X275196Y302798D02*
X279195D01*
X277196D01*
Y296800D01*
X285193Y301798D02*
X284193Y302798D01*
X282194D01*
X281194Y301798D01*
Y297800D01*
X282194Y296800D01*
X284193D01*
X285193Y297800D01*
X287192Y302798D02*
Y296800D01*
Y299799D01*
X291191D01*
Y302798D01*
Y296800D01*
X263800Y315998D02*
Y310000D01*
X266799D01*
X267799Y311000D01*
Y314998D01*
X266799Y315998D01*
X263800D01*
X269798Y310000D02*
Y313999D01*
X271797Y315998D01*
X273797Y313999D01*
Y310000D01*
Y312999D01*
X269798D01*
X275796Y315998D02*
X279795D01*
X277796D01*
Y310000D01*
X281794D02*
Y313999D01*
X283793Y315998D01*
X285793Y313999D01*
Y310000D01*
Y312999D01*
X281794D01*
X542599Y269998D02*
X541599Y270998D01*
X539600D01*
X538600Y269998D01*
Y266000D01*
X539600Y265000D01*
X541599D01*
X542599Y266000D01*
Y267999D01*
X540599D01*
X544598Y265000D02*
Y270998D01*
X548597Y265000D01*
Y270998D01*
X550596D02*
Y265000D01*
X553595D01*
X554595Y266000D01*
Y269998D01*
X553595Y270998D01*
X550596D01*
X539200Y328599D02*
X543199D01*
X541199Y330598D02*
Y326600D01*
X549197Y331598D02*
X545198D01*
Y328599D01*
X547197Y329599D01*
X548197D01*
X549197Y328599D01*
Y326600D01*
X548197Y325600D01*
X546198D01*
X545198Y326600D01*
X551196Y331598D02*
Y327599D01*
X553195Y325600D01*
X555195Y327599D01*
Y331598D01*
X444502Y325499D02*
Y320501D01*
X445501Y319501D01*
X447501D01*
X448500Y320501D01*
Y325499D01*
X454498Y319501D02*
X450500D01*
X454498Y323500D01*
Y324499D01*
X453499Y325499D01*
X451499D01*
X450500Y324499D01*
X350601Y276599D02*
Y271601D01*
X351601Y270601D01*
X353600D01*
X354600Y271601D01*
Y276599D01*
X356599Y270601D02*
X358599D01*
X357599D01*
Y276599D01*
X356599Y275599D01*
X585599Y376402D02*
X579601D01*
Y379401D01*
X580601Y380401D01*
X582600D01*
X583600Y379401D01*
Y376402D01*
Y378402D02*
X585599Y380401D01*
Y382400D02*
Y384400D01*
Y383400D01*
X579601D01*
X580601Y382400D01*
X579601Y391398D02*
X580601Y389398D01*
X582600Y387399D01*
X584599D01*
X585599Y388399D01*
Y390398D01*
X584599Y391398D01*
X583600D01*
X582600Y390398D01*
Y387399D01*
X542999Y374502D02*
X537001D01*
Y377502D01*
X538001Y378501D01*
X540000D01*
X541000Y377502D01*
Y374502D01*
Y376502D02*
X542999Y378501D01*
Y380501D02*
Y382500D01*
Y381500D01*
X537001D01*
X538001Y380501D01*
X537001Y389498D02*
Y385499D01*
X540000D01*
X539000Y387498D01*
Y388498D01*
X540000Y389498D01*
X541999D01*
X542999Y388498D01*
Y386498D01*
X541999Y385499D01*
X499999Y376002D02*
X494001D01*
Y379001D01*
X495001Y380001D01*
X497000D01*
X498000Y379001D01*
Y376002D01*
Y378002D02*
X499999Y380001D01*
Y382000D02*
Y384000D01*
Y383000D01*
X494001D01*
X495001Y382000D01*
X499999Y389998D02*
X494001D01*
X497000Y386999D01*
Y390998D01*
X457999Y375601D02*
X452001D01*
Y378600D01*
X453001Y379600D01*
X455000D01*
X456000Y378600D01*
Y375601D01*
Y377600D02*
X457999Y379600D01*
Y381599D02*
Y383598D01*
Y382599D01*
X452001D01*
X453001Y381599D01*
Y386597D02*
X452001Y387597D01*
Y389596D01*
X453001Y390596D01*
X454000D01*
X455000Y389596D01*
Y388597D01*
Y389596D01*
X456000Y390596D01*
X456999D01*
X457999Y389596D01*
Y387597D01*
X456999Y386597D01*
X414499Y376601D02*
X408501D01*
Y379600D01*
X409501Y380600D01*
X411500D01*
X412500Y379600D01*
Y376601D01*
Y378600D02*
X414499Y380600D01*
Y382599D02*
Y384598D01*
Y383599D01*
X408501D01*
X409501Y382599D01*
X414499Y391596D02*
Y387597D01*
X410500Y391596D01*
X409501D01*
X408501Y390596D01*
Y388597D01*
X409501Y387597D01*
X371999Y378100D02*
X366001D01*
Y381100D01*
X367001Y382099D01*
X369000D01*
X370000Y381100D01*
Y378100D01*
Y380100D02*
X371999Y382099D01*
Y384099D02*
Y386098D01*
Y385098D01*
X366001D01*
X367001Y384099D01*
X371999Y389097D02*
Y391096D01*
Y390097D01*
X366001D01*
X367001Y389097D01*
X330499Y375502D02*
X324501D01*
Y378502D01*
X325501Y379501D01*
X327500D01*
X328500Y378502D01*
Y375502D01*
Y377502D02*
X330499Y379501D01*
Y381501D02*
Y383500D01*
Y382500D01*
X324501D01*
X325501Y381501D01*
Y386499D02*
X324501Y387498D01*
Y389498D01*
X325501Y390498D01*
X329499D01*
X330499Y389498D01*
Y387498D01*
X329499Y386499D01*
X325501D01*
X289499Y379600D02*
X283501D01*
Y382599D01*
X284501Y383599D01*
X286500D01*
X287500Y382599D01*
Y379600D01*
Y381599D02*
X289499Y383599D01*
X288499Y385598D02*
X289499Y386598D01*
Y388597D01*
X288499Y389597D01*
X284501D01*
X283501Y388597D01*
Y386598D01*
X284501Y385598D01*
X285500D01*
X286500Y386598D01*
Y389597D01*
X589099Y208902D02*
X583101D01*
Y211901D01*
X584101Y212900D01*
X586100D01*
X587100Y211901D01*
Y208902D01*
Y210901D02*
X589099Y212900D01*
X584101Y214900D02*
X583101Y215899D01*
Y217899D01*
X584101Y218898D01*
X585100D01*
X586100Y217899D01*
X587100Y218898D01*
X588099D01*
X589099Y217899D01*
Y215899D01*
X588099Y214900D01*
X587100D01*
X586100Y215899D01*
X585100Y214900D01*
X584101D01*
X586100Y215899D02*
Y217899D01*
X545499Y212002D02*
X539501D01*
Y215001D01*
X540501Y216000D01*
X542500D01*
X543500Y215001D01*
Y212002D01*
Y214001D02*
X545499Y216000D01*
X539501Y218000D02*
Y221998D01*
X540501D01*
X544499Y218000D01*
X545499D01*
X504499Y213002D02*
X498501D01*
Y216001D01*
X499501Y217000D01*
X501500D01*
X502500Y216001D01*
Y213002D01*
Y215001D02*
X504499Y217000D01*
X498501Y222998D02*
X499501Y220999D01*
X501500Y219000D01*
X503499D01*
X504499Y219999D01*
Y221999D01*
X503499Y222998D01*
X502500D01*
X501500Y221999D01*
Y219000D01*
X461999Y213002D02*
X456001D01*
Y216001D01*
X457001Y217000D01*
X459000D01*
X460000Y216001D01*
Y213002D01*
Y215001D02*
X461999Y217000D01*
X456001Y222998D02*
Y219000D01*
X459000D01*
X458000Y220999D01*
Y221999D01*
X459000Y222998D01*
X460999D01*
X461999Y221999D01*
Y219999D01*
X460999Y219000D01*
X419499Y213502D02*
X413501D01*
Y216501D01*
X414501Y217500D01*
X416500D01*
X417500Y216501D01*
Y213502D01*
Y215501D02*
X419499Y217500D01*
Y222499D02*
X413501D01*
X416500Y219500D01*
Y223498D01*
X375499Y212502D02*
X369501D01*
Y215501D01*
X370501Y216500D01*
X372500D01*
X373500Y215501D01*
Y212502D01*
Y214501D02*
X375499Y216500D01*
X370501Y218500D02*
X369501Y219499D01*
Y221499D01*
X370501Y222498D01*
X371500D01*
X372500Y221499D01*
Y220499D01*
Y221499D01*
X373500Y222498D01*
X374499D01*
X375499Y221499D01*
Y219499D01*
X374499Y218500D01*
X332499Y212002D02*
X326501D01*
Y215001D01*
X327501Y216000D01*
X329500D01*
X330500Y215001D01*
Y212002D01*
Y214001D02*
X332499Y216000D01*
Y221998D02*
Y218000D01*
X328500Y221998D01*
X327501D01*
X326501Y220999D01*
Y218999D01*
X327501Y218000D01*
X288499Y215001D02*
X282501D01*
Y218000D01*
X283501Y219000D01*
X285500D01*
X286500Y218000D01*
Y215001D01*
Y217001D02*
X288499Y219000D01*
Y220999D02*
Y222999D01*
Y221999D01*
X282501D01*
X283501Y220999D01*
X549399Y428200D02*
Y432198D01*
X548399Y433198D01*
X546400D01*
X545400Y432198D01*
Y428200D01*
X546400Y427200D01*
X548399D01*
X547399Y429199D02*
X549399Y427200D01*
X548399D02*
X549399Y428200D01*
X551398Y427200D02*
X553397D01*
X552398D01*
Y433198D01*
X551398Y432198D01*
X560395Y433198D02*
X558396Y432198D01*
X556396Y430199D01*
Y428200D01*
X557396Y427200D01*
X559396D01*
X560395Y428200D01*
Y429199D01*
X559396Y430199D01*
X556396D01*
X506599Y428200D02*
Y432198D01*
X505599Y433198D01*
X503600D01*
X502600Y432198D01*
Y428200D01*
X503600Y427200D01*
X505599D01*
X504599Y429199D02*
X506599Y427200D01*
X505599D02*
X506599Y428200D01*
X508598Y427200D02*
X510597D01*
X509598D01*
Y433198D01*
X508598Y432198D01*
X517595Y433198D02*
X513596D01*
Y430199D01*
X515596Y431199D01*
X516596D01*
X517595Y430199D01*
Y428200D01*
X516596Y427200D01*
X514596D01*
X513596Y428200D01*
X463001Y428001D02*
Y431999D01*
X462002Y432999D01*
X460002D01*
X459002Y431999D01*
Y428001D01*
X460002Y427001D01*
X462002D01*
X461002Y429000D02*
X463001Y427001D01*
X462002D02*
X463001Y428001D01*
X465000Y427001D02*
X467000D01*
X466000D01*
Y432999D01*
X465000Y431999D01*
X472998Y427001D02*
Y432999D01*
X469999Y430000D01*
X473998D01*
X420799Y428800D02*
Y432798D01*
X419799Y433798D01*
X417800D01*
X416800Y432798D01*
Y428800D01*
X417800Y427800D01*
X419799D01*
X418799Y429799D02*
X420799Y427800D01*
X419799D02*
X420799Y428800D01*
X422798Y427800D02*
X424797D01*
X423798D01*
Y433798D01*
X422798Y432798D01*
X427796D02*
X428796Y433798D01*
X430795D01*
X431795Y432798D01*
Y431799D01*
X430795Y430799D01*
X429796D01*
X430795D01*
X431795Y429799D01*
Y428800D01*
X430795Y427800D01*
X428796D01*
X427796Y428800D01*
X377799D02*
Y432798D01*
X376799Y433798D01*
X374800D01*
X373800Y432798D01*
Y428800D01*
X374800Y427800D01*
X376799D01*
X375799Y429799D02*
X377799Y427800D01*
X376799D02*
X377799Y428800D01*
X379798Y427800D02*
X381797D01*
X380798D01*
Y433798D01*
X379798Y432798D01*
X388795Y427800D02*
X384796D01*
X388795Y431799D01*
Y432798D01*
X387795Y433798D01*
X385796D01*
X384796Y432798D01*
X334599Y428800D02*
Y432798D01*
X333599Y433798D01*
X331600D01*
X330600Y432798D01*
Y428800D01*
X331600Y427800D01*
X333599D01*
X332599Y429799D02*
X334599Y427800D01*
X333599D02*
X334599Y428800D01*
X336598Y427800D02*
X338597D01*
X337598D01*
Y433798D01*
X336598Y432798D01*
X341596Y427800D02*
X343596D01*
X342596D01*
Y433798D01*
X341596Y432798D01*
X291399Y428200D02*
Y432198D01*
X290399Y433198D01*
X288400D01*
X287400Y432198D01*
Y428200D01*
X288400Y427200D01*
X290399D01*
X289399Y429199D02*
X291399Y427200D01*
X290399D02*
X291399Y428200D01*
X293398Y427200D02*
X295397D01*
X294398D01*
Y433198D01*
X293398Y432198D01*
X298396D02*
X299396Y433198D01*
X301396D01*
X302395Y432198D01*
Y428200D01*
X301396Y427200D01*
X299396D01*
X298396Y428200D01*
Y432198D01*
X247799Y428500D02*
Y432498D01*
X246799Y433498D01*
X244800D01*
X243800Y432498D01*
Y428500D01*
X244800Y427500D01*
X246799D01*
X245799Y429499D02*
X247799Y427500D01*
X246799D02*
X247799Y428500D01*
X249798D02*
X250798Y427500D01*
X252797D01*
X253797Y428500D01*
Y432498D01*
X252797Y433498D01*
X250798D01*
X249798Y432498D01*
Y431499D01*
X250798Y430499D01*
X253797D01*
X551599Y190600D02*
Y194598D01*
X550599Y195598D01*
X548600D01*
X547600Y194598D01*
Y190600D01*
X548600Y189600D01*
X550599D01*
X549599Y191599D02*
X551599Y189600D01*
X550599D02*
X551599Y190600D01*
X553598Y194598D02*
X554598Y195598D01*
X556597D01*
X557597Y194598D01*
Y193599D01*
X556597Y192599D01*
X557597Y191599D01*
Y190600D01*
X556597Y189600D01*
X554598D01*
X553598Y190600D01*
Y191599D01*
X554598Y192599D01*
X553598Y193599D01*
Y194598D01*
X554598Y192599D02*
X556597D01*
X508999Y190600D02*
Y194598D01*
X507999Y195598D01*
X506000D01*
X505000Y194598D01*
Y190600D01*
X506000Y189600D01*
X507999D01*
X506999Y191599D02*
X508999Y189600D01*
X507999D02*
X508999Y190600D01*
X510998Y195598D02*
X514997D01*
Y194598D01*
X510998Y190600D01*
Y189600D01*
X466399Y191800D02*
Y195798D01*
X465399Y196798D01*
X463400D01*
X462400Y195798D01*
Y191800D01*
X463400Y190800D01*
X465399D01*
X464399Y192799D02*
X466399Y190800D01*
X465399D02*
X466399Y191800D01*
X472397Y196798D02*
X470397Y195798D01*
X468398Y193799D01*
Y191800D01*
X469398Y190800D01*
X471397D01*
X472397Y191800D01*
Y192799D01*
X471397Y193799D01*
X468398D01*
X423499Y193000D02*
Y196998D01*
X422499Y197998D01*
X420500D01*
X419500Y196998D01*
Y193000D01*
X420500Y192000D01*
X422499D01*
X421499Y193999D02*
X423499Y192000D01*
X422499D02*
X423499Y193000D01*
X429497Y197998D02*
X425498D01*
Y194999D01*
X427497Y195999D01*
X428497D01*
X429497Y194999D01*
Y193000D01*
X428497Y192000D01*
X426498D01*
X425498Y193000D01*
X379999D02*
Y196998D01*
X378999Y197998D01*
X377000D01*
X376000Y196998D01*
Y193000D01*
X377000Y192000D01*
X378999D01*
X377999Y193999D02*
X379999Y192000D01*
X378999D02*
X379999Y193000D01*
X384997Y192000D02*
Y197998D01*
X381998Y194999D01*
X385997D01*
X337499Y193000D02*
Y196998D01*
X336499Y197998D01*
X334500D01*
X333500Y196998D01*
Y193000D01*
X334500Y192000D01*
X336499D01*
X335499Y193999D02*
X337499Y192000D01*
X336499D02*
X337499Y193000D01*
X339498Y196998D02*
X340498Y197998D01*
X342497D01*
X343497Y196998D01*
Y195999D01*
X342497Y194999D01*
X341497D01*
X342497D01*
X343497Y193999D01*
Y193000D01*
X342497Y192000D01*
X340498D01*
X339498Y193000D01*
X294399D02*
Y196998D01*
X293399Y197998D01*
X291400D01*
X290400Y196998D01*
Y193000D01*
X291400Y192000D01*
X293399D01*
X292399Y193999D02*
X294399Y192000D01*
X293399D02*
X294399Y193000D01*
X300397Y192000D02*
X296398D01*
X300397Y195999D01*
Y196998D01*
X299397Y197998D01*
X297398D01*
X296398Y196998D01*
X250999Y193000D02*
Y196998D01*
X249999Y197998D01*
X248000D01*
X247000Y196998D01*
Y193000D01*
X248000Y192000D01*
X249999D01*
X248999Y193999D02*
X250999Y192000D01*
X249999D02*
X250999Y193000D01*
X252998Y192000D02*
X254997D01*
X253998D01*
Y197998D01*
X252998Y196998D01*
X553500Y454900D02*
Y460898D01*
X556499D01*
X557499Y459898D01*
Y457899D01*
X556499Y456899D01*
X553500D01*
X559498Y454900D02*
X561497D01*
X560498D01*
Y460898D01*
X559498Y459898D01*
X568495Y460898D02*
X566496Y459898D01*
X564496Y457899D01*
Y455900D01*
X565496Y454900D01*
X567495D01*
X568495Y455900D01*
Y456899D01*
X567495Y457899D01*
X564496D01*
X510500Y455400D02*
Y461398D01*
X513499D01*
X514499Y460398D01*
Y458399D01*
X513499Y457399D01*
X510500D01*
X516498Y455400D02*
X518497D01*
X517498D01*
Y461398D01*
X516498Y460398D01*
X525495Y461398D02*
X521496D01*
Y458399D01*
X523496Y459399D01*
X524496D01*
X525495Y458399D01*
Y456400D01*
X524496Y455400D01*
X522496D01*
X521496Y456400D01*
X467500Y455900D02*
Y461898D01*
X470499D01*
X471499Y460898D01*
Y458899D01*
X470499Y457899D01*
X467500D01*
X473498Y455900D02*
X475497D01*
X474498D01*
Y461898D01*
X473498Y460898D01*
X481496Y455900D02*
Y461898D01*
X478496Y458899D01*
X482495D01*
X425500Y455900D02*
Y461898D01*
X428499D01*
X429499Y460898D01*
Y458899D01*
X428499Y457899D01*
X425500D01*
X431498Y455900D02*
X433497D01*
X432498D01*
Y461898D01*
X431498Y460898D01*
X436496D02*
X437496Y461898D01*
X439496D01*
X440495Y460898D01*
Y459899D01*
X439496Y458899D01*
X438496D01*
X439496D01*
X440495Y457899D01*
Y456900D01*
X439496Y455900D01*
X437496D01*
X436496Y456900D01*
X383000Y456400D02*
Y462398D01*
X385999D01*
X386999Y461398D01*
Y459399D01*
X385999Y458399D01*
X383000D01*
X388998Y456400D02*
X390997D01*
X389998D01*
Y462398D01*
X388998Y461398D01*
X397995Y456400D02*
X393996D01*
X397995Y460399D01*
Y461398D01*
X396995Y462398D01*
X394996D01*
X393996Y461398D01*
X341500Y456900D02*
Y462898D01*
X344499D01*
X345499Y461898D01*
Y459899D01*
X344499Y458899D01*
X341500D01*
X347498Y456900D02*
X349497D01*
X348498D01*
Y462898D01*
X347498Y461898D01*
X352496Y456900D02*
X354496D01*
X353496D01*
Y462898D01*
X352496Y461898D01*
X301500Y456900D02*
Y462898D01*
X304499D01*
X305499Y461898D01*
Y459899D01*
X304499Y458899D01*
X301500D01*
X307498Y456900D02*
X309497D01*
X308498D01*
Y462898D01*
X307498Y461898D01*
X312496D02*
X313496Y462898D01*
X315495D01*
X316495Y461898D01*
Y457900D01*
X315495Y456900D01*
X313496D01*
X312496Y457900D01*
Y461898D01*
X258000Y457400D02*
Y463398D01*
X260999D01*
X261999Y462398D01*
Y460399D01*
X260999Y459399D01*
X258000D01*
X263998Y458400D02*
X264998Y457400D01*
X266997D01*
X267997Y458400D01*
Y462398D01*
X266997Y463398D01*
X264998D01*
X263998Y462398D01*
Y461399D01*
X264998Y460399D01*
X267997D01*
X555402Y144601D02*
Y150599D01*
X558401D01*
X559400Y149599D01*
Y147600D01*
X558401Y146600D01*
X555402D01*
X561400Y149599D02*
X562399Y150599D01*
X564399D01*
X565398Y149599D01*
Y148600D01*
X564399Y147600D01*
X565398Y146600D01*
Y145601D01*
X564399Y144601D01*
X562399D01*
X561400Y145601D01*
Y146600D01*
X562399Y147600D01*
X561400Y148600D01*
Y149599D01*
X562399Y147600D02*
X564399D01*
X512902Y144601D02*
Y150599D01*
X515901D01*
X516900Y149599D01*
Y147600D01*
X515901Y146600D01*
X512902D01*
X518900Y150599D02*
X522898D01*
Y149599D01*
X518900Y145601D01*
Y144601D01*
X471402D02*
Y150599D01*
X474401D01*
X475400Y149599D01*
Y147600D01*
X474401Y146600D01*
X471402D01*
X481398Y150599D02*
X479399Y149599D01*
X477400Y147600D01*
Y145601D01*
X478399Y144601D01*
X480399D01*
X481398Y145601D01*
Y146600D01*
X480399Y147600D01*
X477400D01*
X428402Y144601D02*
Y150599D01*
X431401D01*
X432400Y149599D01*
Y147600D01*
X431401Y146600D01*
X428402D01*
X438398Y150599D02*
X434400D01*
Y147600D01*
X436399Y148600D01*
X437399D01*
X438398Y147600D01*
Y145601D01*
X437399Y144601D01*
X435399D01*
X434400Y145601D01*
X386402Y144601D02*
Y150599D01*
X389401D01*
X390400Y149599D01*
Y147600D01*
X389401Y146600D01*
X386402D01*
X395399Y144601D02*
Y150599D01*
X392400Y147600D01*
X396398D01*
X341902Y144601D02*
Y150599D01*
X344901D01*
X345900Y149599D01*
Y147600D01*
X344901Y146600D01*
X341902D01*
X347900Y149599D02*
X348899Y150599D01*
X350899D01*
X351898Y149599D01*
Y148600D01*
X350899Y147600D01*
X349899D01*
X350899D01*
X351898Y146600D01*
Y145601D01*
X350899Y144601D01*
X348899D01*
X347900Y145601D01*
X302902Y144601D02*
Y150599D01*
X305901D01*
X306900Y149599D01*
Y147600D01*
X305901Y146600D01*
X302902D01*
X312898Y144601D02*
X308900D01*
X312898Y148600D01*
Y149599D01*
X311899Y150599D01*
X309899D01*
X308900Y149599D01*
X262001Y144201D02*
Y150199D01*
X265000D01*
X266000Y149199D01*
Y147200D01*
X265000Y146200D01*
X262001D01*
X267999Y144201D02*
X269999D01*
X268999D01*
Y150199D01*
X267999Y149199D01*
X247800Y329399D02*
X245801D01*
X246800D01*
Y324401D01*
X245801Y323401D01*
X244801D01*
X243801Y324401D01*
X249799Y323401D02*
X251799D01*
X250799D01*
Y329399D01*
X249799Y328399D01*
X545001Y374502D02*
X550999D01*
Y377502D01*
X549999Y378501D01*
X546001D01*
X545001Y377502D01*
Y374502D01*
X550999Y380501D02*
Y382500D01*
Y381500D01*
X545001D01*
X546001Y380501D01*
X545001Y389498D02*
X546001Y387498D01*
X548000Y385499D01*
X549999D01*
X550999Y386498D01*
Y388498D01*
X549999Y389498D01*
X549000D01*
X548000Y388498D01*
Y385499D01*
X505001Y376002D02*
X510999D01*
Y379001D01*
X509999Y380001D01*
X506001D01*
X505001Y379001D01*
Y376002D01*
X510999Y382000D02*
Y384000D01*
Y383000D01*
X505001D01*
X506001Y382000D01*
X505001Y390998D02*
Y386999D01*
X508000D01*
X507000Y388998D01*
Y389998D01*
X508000Y390998D01*
X509999D01*
X510999Y389998D01*
Y387999D01*
X509999Y386999D01*
X460501Y377002D02*
X466499D01*
Y380001D01*
X465499Y381001D01*
X461501D01*
X460501Y380001D01*
Y377002D01*
X466499Y383000D02*
Y385000D01*
Y384000D01*
X460501D01*
X461501Y383000D01*
X466499Y390998D02*
X460501D01*
X463500Y387999D01*
Y391998D01*
X418001Y375502D02*
X423999D01*
Y378502D01*
X422999Y379501D01*
X419001D01*
X418001Y378502D01*
Y375502D01*
X423999Y381501D02*
Y383500D01*
Y382500D01*
X418001D01*
X419001Y381501D01*
Y386499D02*
X418001Y387498D01*
Y389498D01*
X419001Y390498D01*
X420000D01*
X421000Y389498D01*
Y388498D01*
Y389498D01*
X422000Y390498D01*
X422999D01*
X423999Y389498D01*
Y387498D01*
X422999Y386499D01*
X375501Y376502D02*
X381499D01*
Y379502D01*
X380499Y380501D01*
X376501D01*
X375501Y379502D01*
Y376502D01*
X381499Y382501D02*
Y384500D01*
Y383500D01*
X375501D01*
X376501Y382501D01*
X381499Y391498D02*
Y387499D01*
X377500Y391498D01*
X376501D01*
X375501Y390498D01*
Y388498D01*
X376501Y387499D01*
X334001Y377502D02*
X339999D01*
Y380501D01*
X338999Y381501D01*
X335001D01*
X334001Y380501D01*
Y377502D01*
X339999Y383500D02*
Y385500D01*
Y384500D01*
X334001D01*
X335001Y383500D01*
X339999Y388498D02*
Y390498D01*
Y389498D01*
X334001D01*
X335001Y388498D01*
X292001Y378002D02*
X297999D01*
Y381001D01*
X296999Y382001D01*
X293001D01*
X292001Y381001D01*
Y378002D01*
X297999Y384000D02*
Y386000D01*
Y385000D01*
X292001D01*
X293001Y384000D01*
Y388999D02*
X292001Y389999D01*
Y391998D01*
X293001Y392998D01*
X296999D01*
X297999Y391998D01*
Y389999D01*
X296999Y388999D01*
X293001D01*
X251001Y380002D02*
X256999D01*
Y383001D01*
X255999Y384000D01*
X252001D01*
X251001Y383001D01*
Y380002D01*
X255999Y386000D02*
X256999Y386999D01*
Y388999D01*
X255999Y389998D01*
X252001D01*
X251001Y388999D01*
Y386999D01*
X252001Y386000D01*
X253000D01*
X254000Y386999D01*
Y389998D01*
X548501Y209002D02*
X554499D01*
Y212001D01*
X553499Y213000D01*
X549501D01*
X548501Y212001D01*
Y209002D01*
X549501Y215000D02*
X548501Y215999D01*
Y217999D01*
X549501Y218998D01*
X550500D01*
X551500Y217999D01*
X552500Y218998D01*
X553499D01*
X554499Y217999D01*
Y215999D01*
X553499Y215000D01*
X552500D01*
X551500Y215999D01*
X550500Y215000D01*
X549501D01*
X551500Y215999D02*
Y217999D01*
X507001Y210502D02*
X512999D01*
Y213501D01*
X511999Y214500D01*
X508001D01*
X507001Y213501D01*
Y210502D01*
Y216500D02*
Y220498D01*
X508001D01*
X511999Y216500D01*
X512999D01*
X465501Y212002D02*
X471499D01*
Y215001D01*
X470499Y216000D01*
X466501D01*
X465501Y215001D01*
Y212002D01*
Y221998D02*
X466501Y219999D01*
X468500Y218000D01*
X470499D01*
X471499Y218999D01*
Y220999D01*
X470499Y221998D01*
X469500D01*
X468500Y220999D01*
Y218000D01*
X422501Y210502D02*
X428499D01*
Y213501D01*
X427499Y214500D01*
X423501D01*
X422501Y213501D01*
Y210502D01*
Y220498D02*
Y216500D01*
X425500D01*
X424500Y218499D01*
Y219499D01*
X425500Y220498D01*
X427499D01*
X428499Y219499D01*
Y217499D01*
X427499Y216500D01*
X381001Y211002D02*
X386999D01*
Y214001D01*
X385999Y215000D01*
X382001D01*
X381001Y214001D01*
Y211002D01*
X386999Y219999D02*
X381001D01*
X384000Y217000D01*
Y220998D01*
X337001Y212002D02*
X342999D01*
Y215001D01*
X341999Y216000D01*
X338001D01*
X337001Y215001D01*
Y212002D01*
X338001Y218000D02*
X337001Y218999D01*
Y220999D01*
X338001Y221998D01*
X339000D01*
X340000Y220999D01*
Y219999D01*
Y220999D01*
X341000Y221998D01*
X341999D01*
X342999Y220999D01*
Y218999D01*
X341999Y218000D01*
X294001Y212002D02*
X299999D01*
Y215001D01*
X298999Y216000D01*
X295001D01*
X294001Y215001D01*
Y212002D01*
X299999Y221998D02*
Y218000D01*
X296000Y221998D01*
X295001D01*
X294001Y220999D01*
Y218999D01*
X295001Y218000D01*
X249001Y210001D02*
X254999D01*
Y213000D01*
X253999Y214000D01*
X250001D01*
X249001Y213000D01*
Y210001D01*
X254999Y215999D02*
Y217999D01*
Y216999D01*
X249001D01*
X250001Y215999D01*
D15*
X561495Y220868D02*
D03*
X519495Y221368D02*
D03*
X478995Y222868D02*
D03*
X435495Y222368D02*
D03*
X306995Y223368D02*
D03*
X349995D02*
D03*
X393995Y222868D02*
D03*
X262995Y223368D02*
D03*
X264005Y375632D02*
D03*
X557505Y375132D02*
D03*
X518505D02*
D03*
X474505Y374132D02*
D03*
X431505Y374632D02*
D03*
X389005Y374132D02*
D03*
X305005Y375632D02*
D03*
X347005Y374132D02*
D03*
M02*
