G04*
G04 #@! TF.GenerationSoftware,Altium Limited,CircuitMaker,2.2.1 (6)*
G04*
G04 Layer_Color=8150272*
%FSLAX25Y25*%
%MOIN*%
G70*
G04*
G04 #@! TF.SameCoordinates,9BB8909F-1235-4B7E-8516-07DB857BAA42*
G04*
G04*
G04 #@! TF.FilePolarity,Negative*
G04*
G01*
G75*
%ADD16R,0.07099X0.07099*%
%ADD17C,0.07099*%
%ADD18C,0.15800*%
%ADD19C,0.40800*%
%ADD20O,0.10642X0.08674*%
%ADD21R,0.10642X0.08674*%
%ADD22C,0.06706*%
%ADD23C,0.07493*%
%ADD24R,0.07493X0.07493*%
%ADD25C,0.07296*%
%ADD26C,0.06800*%
D16*
X574400Y418200D02*
D03*
X488000Y418500D02*
D03*
X316400Y418200D02*
D03*
X576600Y180600D02*
D03*
X534000D02*
D03*
X491400Y181800D02*
D03*
X448500Y183000D02*
D03*
X405000D02*
D03*
X362500D02*
D03*
X319400D02*
D03*
X276000D02*
D03*
X531600Y418200D02*
D03*
X445800Y418800D02*
D03*
X402800D02*
D03*
X359600D02*
D03*
X272800Y418500D02*
D03*
D17*
X564400Y418200D02*
D03*
X554400D02*
D03*
X478000Y418500D02*
D03*
X468000D02*
D03*
X296400Y418200D02*
D03*
X306400D02*
D03*
X556600Y180600D02*
D03*
X566600D02*
D03*
X514000D02*
D03*
X524000D02*
D03*
X471400Y181800D02*
D03*
X481400D02*
D03*
X428500Y183000D02*
D03*
X438500D02*
D03*
X385000D02*
D03*
X395000D02*
D03*
X342500D02*
D03*
X352500D02*
D03*
X299400D02*
D03*
X309400D02*
D03*
X256000D02*
D03*
X266000D02*
D03*
X511600Y418200D02*
D03*
X521600D02*
D03*
X425800Y418800D02*
D03*
X435800D02*
D03*
X382800D02*
D03*
X392800D02*
D03*
X339600D02*
D03*
X349600D02*
D03*
X252800Y418500D02*
D03*
X262800D02*
D03*
D18*
X243000Y155500D02*
D03*
X587000Y157500D02*
D03*
X586500Y450500D02*
D03*
X243500Y451000D02*
D03*
D19*
X578400Y325800D02*
D03*
X577800Y268200D02*
D03*
D20*
X249600Y285600D02*
D03*
Y299379D02*
D03*
D21*
Y313159D02*
D03*
D22*
X368000Y256500D02*
D03*
X378000D02*
D03*
X388000D02*
D03*
X398000D02*
D03*
X408000D02*
D03*
X418000D02*
D03*
X428000D02*
D03*
X438000D02*
D03*
X368000Y286500D02*
D03*
X378000D02*
D03*
X388000D02*
D03*
X398000D02*
D03*
X408000D02*
D03*
X418000D02*
D03*
X428000D02*
D03*
X438000D02*
D03*
Y337000D02*
D03*
X428000D02*
D03*
X418000D02*
D03*
X408000D02*
D03*
X398000D02*
D03*
X388000D02*
D03*
X378000D02*
D03*
X368000D02*
D03*
X438000Y307000D02*
D03*
X428000D02*
D03*
X418000D02*
D03*
X408000D02*
D03*
X398000D02*
D03*
X388000D02*
D03*
X378000D02*
D03*
X368000D02*
D03*
D23*
X270000Y157200D02*
D03*
X312400Y157100D02*
D03*
X351900Y157600D02*
D03*
X395900Y157100D02*
D03*
X437900D02*
D03*
X480400D02*
D03*
X522400D02*
D03*
X564900D02*
D03*
X315500Y448900D02*
D03*
X355500D02*
D03*
X397000Y448400D02*
D03*
X439500Y447900D02*
D03*
X481500D02*
D03*
X524500Y447400D02*
D03*
X567500Y446900D02*
D03*
X272000Y449400D02*
D03*
D24*
X260000Y157200D02*
D03*
X302400Y157100D02*
D03*
X341900Y157600D02*
D03*
X385900Y157100D02*
D03*
X427900D02*
D03*
X470400D02*
D03*
X512400D02*
D03*
X554900D02*
D03*
X305500Y448900D02*
D03*
X345500D02*
D03*
X387000Y448400D02*
D03*
X429500Y447900D02*
D03*
X471500D02*
D03*
X514500Y447400D02*
D03*
X557500Y446900D02*
D03*
X262000Y449400D02*
D03*
D25*
X561500Y194783D02*
D03*
Y230217D02*
D03*
X519500Y195283D02*
D03*
Y230716D02*
D03*
X479000Y196783D02*
D03*
Y232217D02*
D03*
X435500Y196283D02*
D03*
Y231716D02*
D03*
X307000Y197283D02*
D03*
Y232716D02*
D03*
X350000Y197283D02*
D03*
Y232716D02*
D03*
X394000Y196783D02*
D03*
Y232217D02*
D03*
X263000Y197283D02*
D03*
Y232716D02*
D03*
X264000Y401717D02*
D03*
Y366283D02*
D03*
X557500Y401217D02*
D03*
Y365784D02*
D03*
X518500Y401217D02*
D03*
Y365784D02*
D03*
X474500Y400216D02*
D03*
Y364784D02*
D03*
X431500Y400716D02*
D03*
Y365283D02*
D03*
X389000Y400216D02*
D03*
Y364784D02*
D03*
X305000Y401717D02*
D03*
Y366283D02*
D03*
X347000Y400216D02*
D03*
Y364784D02*
D03*
D26*
X576600Y190802D02*
D03*
Y236400D02*
D03*
X533000Y193500D02*
D03*
Y239098D02*
D03*
X492000Y194000D02*
D03*
Y239598D02*
D03*
X449500Y193902D02*
D03*
Y239500D02*
D03*
X407000Y193902D02*
D03*
Y239500D02*
D03*
X363000Y193500D02*
D03*
Y239098D02*
D03*
X320000Y194000D02*
D03*
Y239598D02*
D03*
X276500Y194000D02*
D03*
Y239598D02*
D03*
X573600Y404400D02*
D03*
Y358802D02*
D03*
X531500Y401000D02*
D03*
Y355402D02*
D03*
X488000Y401000D02*
D03*
Y355402D02*
D03*
X446000Y401598D02*
D03*
Y356000D02*
D03*
X402500Y402098D02*
D03*
Y356500D02*
D03*
X360000Y401598D02*
D03*
Y356000D02*
D03*
X278000Y400598D02*
D03*
Y355000D02*
D03*
X318500Y401098D02*
D03*
Y355500D02*
D03*
M02*
