M48
;Layer_Color=6321
;FILE_FORMAT=2:5
INCH,TZ
;TYPE=PLATED
T1F00S00C0.03000
T2F00S00C0.03543
T3F00S00C0.03937
T4F00S00C0.04528
T5F00S00C0.04724
T6F00S00C0.05118
T7F00S00C0.10200
T8F00S00C0.26500
%
T01
X492000Y194000
X533000Y193500
Y239098
X492000Y239598
X576600Y236400
Y190802
X449500Y193902
X407000
X363000Y193500
X320000Y194000
Y239598
X363000Y239098
X407000Y239500
X449500
X276500Y239598
Y194000
X278000Y355000
Y400598
X318500Y401098
X360000Y401598
X402500Y402098
X446000Y401598
Y356000
X402500Y356500
X360000Y356000
X318500Y355500
X488000Y355402
X531500
X573600Y358802
Y404400
X531500Y401000
X488000
T02
X368000Y256500
X378000
X388000
X398000
X408000
X418000
X428000
X438000
Y286500
X428000
X418000
X408000
X398000
X388000
X378000
X368000
Y307000
X378000
X388000
X398000
X408000
X418000
X428000
X438000
Y337000
X428000
X418000
X408000
X398000
X388000
X378000
X368000
T03
X471400Y181800
X481400
X491400
X514000Y180600
X524000
X534000
X556600
X566600
X576600
X448500Y183000
X438500
X428500
X405000
X395000
X385000
X362500
X352500
X342500
X319400
X309400
X299400
X276000
X266000
X256000
X252800Y418500
X262800
X272800
X296400Y418200
X306400
X316400
X339600Y418800
X349600
X359600
X382800
X392800
X402800
X425800
X435800
X445800
X468000Y418500
X478000
X488000
X511600Y418200
X521600
X531600
X554400
X564400
X574400
T04
X479000Y196783
Y232217
X519500Y230716
Y195283
X561500Y194783
Y230217
X435500Y231716
Y196283
X394000Y196783
Y232217
X350000Y232716
Y197283
X307000
Y232716
X263000
Y197283
X264000Y366283
Y401717
X305000
Y366283
X347000Y364784
Y400216
X389000
Y364784
X431500Y365283
Y400716
X474500Y400216
Y364784
X518500Y365784
Y401217
X557500
Y365784
T05
X470400Y157100
X480400
X512400
X522400
X554900
X564900
X437900
X427900
X395900
X385900
X351900Y157600
X341900
X312400Y157100
X302400
X270000Y157200
X260000
X262000Y449400
X272000
X305500Y448900
X315500
X345500
X355500
X387000Y448400
X397000
X429500Y447900
X439500
X471500
X481500
X514500Y447400
X524500
X557500Y446900
X567500
T06
X249600Y285600
Y299379
Y313159
T07
X243000Y155500
X587000Y157500
X243500Y451000
X586500Y450500
T08
X577800Y268200
X578400Y325800
M30
