G04*
G04 #@! TF.GenerationSoftware,Altium Limited,CircuitMaker,2.2.1 (6)*
G04*
G04 Layer_Physical_Order=1*
G04 Layer_Color=25308*
%FSLAX25Y25*%
%MOIN*%
G70*
G04*
G04 #@! TF.SameCoordinates,9BB8909F-1235-4B7E-8516-07DB857BAA42*
G04*
G04*
G04 #@! TF.FilePolarity,Positive*
G04*
G01*
G75*
%ADD27C,0.02000*%
%ADD28C,0.03000*%
%ADD29R,0.06299X0.06299*%
%ADD30C,0.06299*%
%ADD31C,0.15000*%
%ADD32C,0.40000*%
%ADD33O,0.09842X0.07874*%
%ADD34R,0.09842X0.07874*%
%ADD35C,0.05905*%
%ADD36C,0.06693*%
%ADD37R,0.06693X0.06693*%
%ADD38C,0.06496*%
%ADD39C,0.06000*%
D27*
X575000Y190200D02*
Y227200D01*
X565500Y157700D02*
Y182500D01*
X565000Y183000D02*
Y184400D01*
X561500Y187900D02*
X565000Y184400D01*
X561500Y187900D02*
Y194783D01*
X277000Y400500D02*
Y414300D01*
Y400500D02*
X277500Y400000D01*
X272800Y418500D02*
X277000Y414300D01*
X276500Y184500D02*
X278000Y183000D01*
X276500Y184500D02*
Y194000D01*
X265800Y165200D02*
Y190700D01*
X263000Y193500D02*
X265800Y190700D01*
Y165200D02*
X268400Y162600D01*
X533000Y180600D02*
Y193500D01*
X572500Y418500D02*
X574800Y416200D01*
Y402300D02*
Y416200D01*
X573500Y401000D02*
X574800Y402300D01*
X268400Y157600D02*
Y162600D01*
X312400Y157100D02*
X313000Y157700D01*
X351900Y157600D02*
X352500Y158200D01*
X395900Y157100D02*
X396500Y157700D01*
X437900Y157100D02*
X438500Y157700D01*
X480400Y157100D02*
X481000Y157700D01*
X522400Y157100D02*
X523000Y157700D01*
X564900Y157100D02*
X565500Y157700D01*
X249600Y313159D02*
X250979Y311779D01*
X344220D01*
X575000Y183000D02*
Y190200D01*
X562700Y239500D02*
X575000Y227200D01*
X548000Y239500D02*
X562700D01*
X415700Y295800D02*
X418000Y293500D01*
X399200Y295800D02*
X415700D01*
X388000Y307000D02*
X399200Y295800D01*
X354300Y262800D02*
X378000Y286500D01*
X318300Y262800D02*
X354300D01*
X276500Y221000D02*
X318300Y262800D01*
X533000Y193500D02*
Y206200D01*
X526200Y213000D02*
X533000Y206200D01*
X506400Y213000D02*
X526200D01*
X506400D02*
Y247800D01*
X423000D02*
X506400D01*
X418000Y252800D02*
X423000Y247800D01*
X418000Y252800D02*
Y256500D01*
X449500Y193902D02*
Y209900D01*
X448800Y210600D02*
X449500Y209900D01*
X420600Y210600D02*
X448800D01*
X420600D02*
Y238800D01*
X411600Y247800D02*
X420600Y238800D01*
X398400Y247800D02*
X411600D01*
X398400D02*
Y256100D01*
X398000Y256500D02*
X398400Y256100D01*
X398000Y255400D02*
Y256500D01*
X435000Y267000D02*
X520500D01*
X428000Y260000D02*
X435000Y267000D01*
X428000Y256500D02*
Y260000D01*
X520500Y267000D02*
X548000Y239500D01*
X436800Y348000D02*
X497000D01*
X428000Y339200D02*
X436800Y348000D01*
X428000Y337000D02*
Y339200D01*
X411600Y349800D02*
Y392998D01*
X408000Y346200D02*
X411600Y349800D01*
X408000Y337000D02*
Y346200D01*
X402500Y402098D02*
X411600Y392998D01*
X378200Y346800D02*
X388000Y337000D01*
X347200Y346800D02*
X378200D01*
X318500Y375500D02*
X347200Y346800D01*
X505300Y340800D02*
X530500Y366000D01*
X441800Y340800D02*
X505300D01*
X438000Y337000D02*
X441800Y340800D01*
X398000Y338500D02*
Y340000D01*
Y337000D02*
Y338500D01*
X360000Y378000D02*
X398000Y340000D01*
X360000Y378000D02*
Y401598D01*
X511200Y335400D02*
X523300Y347500D01*
X456400Y335400D02*
X511200D01*
X428000Y307000D02*
X456400Y335400D01*
X523300Y347500D02*
X553000D01*
X497000Y348000D02*
Y392000D01*
X313000Y157700D02*
Y171000D01*
X309500Y174500D02*
X313000Y171000D01*
X309500Y174500D02*
Y183000D01*
X263000Y193500D02*
Y197283D01*
X276500Y194000D02*
Y221000D01*
X407500Y194402D02*
Y229500D01*
X388000Y249000D02*
X407500Y229500D01*
X388000Y249000D02*
Y256500D01*
X407000Y193902D02*
X407500Y194402D01*
X362500Y194000D02*
X363000Y193500D01*
X362500Y194000D02*
Y224500D01*
X378000Y240000D01*
Y256500D01*
X320000Y194000D02*
Y226000D01*
X350500Y256500D01*
X368000D01*
X565000Y183000D02*
X565500Y182500D01*
X523000Y157700D02*
Y183000D01*
X519500Y189000D02*
Y195283D01*
Y189000D02*
X523000Y185500D01*
Y183000D02*
Y185500D01*
X479000Y191000D02*
Y196783D01*
Y191000D02*
X481000Y189000D01*
Y183000D02*
Y189000D01*
Y157700D02*
Y183000D01*
X438500Y157700D02*
Y183000D01*
X394000Y191000D02*
Y196783D01*
Y191000D02*
X396000Y189000D01*
Y183000D02*
Y189000D01*
Y183000D02*
X396500Y182500D01*
Y157700D02*
Y182500D01*
X573500Y368000D02*
Y401000D01*
X553000Y347500D02*
X573500Y368000D01*
X530500Y400000D02*
X531500Y401000D01*
X530500Y366000D02*
Y400000D01*
X488000Y401000D02*
X497000Y392000D01*
X446000Y367500D02*
Y401598D01*
X418000Y339500D02*
X446000Y367500D01*
X418000Y337000D02*
Y339500D01*
X318500Y375500D02*
Y401098D01*
X277500Y400000D02*
Y400098D01*
X278000Y400598D01*
X309500Y183000D02*
Y189000D01*
X307000Y191500D02*
X309500Y189000D01*
X307000Y191500D02*
Y197283D01*
X352500Y158200D02*
Y183000D01*
Y188000D01*
X350000Y190500D02*
X352500Y188000D01*
X350000Y190500D02*
Y197283D01*
X395400Y157600D02*
X395900Y157100D01*
X435500Y196283D02*
X438500Y193283D01*
Y183000D02*
Y193283D01*
X436900Y158100D02*
X437900Y157100D01*
X491000Y183000D02*
X492000Y184000D01*
Y194000D01*
X448500Y183000D02*
X449500Y184000D01*
Y193902D01*
X406000Y183000D02*
X407000Y184000D01*
Y193902D01*
X362500Y183000D02*
Y193000D01*
X363000Y193500D01*
X319500Y183000D02*
X320000Y183500D01*
Y194000D01*
X276000Y183000D02*
X276500Y183500D01*
X358500Y297500D02*
X387500D01*
X344220Y311779D02*
X358500Y297500D01*
X387500Y287000D02*
Y297500D01*
Y287000D02*
X388000Y286500D01*
X438000D02*
Y287000D01*
X418000Y307000D02*
X438000Y287000D01*
X418000Y286500D02*
Y293500D01*
X278000Y400598D02*
X279902D01*
X530000Y418500D02*
X531500Y417000D01*
Y401000D02*
Y417000D01*
X488000Y401000D02*
Y418500D01*
X445000D02*
X446000Y417500D01*
Y401598D02*
Y417500D01*
X402500Y402098D02*
Y418500D01*
X360000Y417500D02*
X361000Y418500D01*
X360000Y401598D02*
Y417500D01*
X318500Y401098D02*
Y418500D01*
D28*
X306600Y416600D02*
Y422600D01*
X315500Y431500D01*
X306000Y416000D02*
X306600Y416600D01*
X306000Y409000D02*
Y416000D01*
X305000Y408000D02*
X306000Y409000D01*
X564600Y412100D02*
Y420600D01*
X565200Y421200D01*
X557500Y405000D02*
X564600Y412100D01*
X565200Y427700D02*
X567500Y430000D01*
X565200Y421200D02*
Y427700D01*
X267600Y430800D02*
X272000Y435200D01*
X262300Y407000D02*
X264000Y405300D01*
X262300Y407000D02*
Y418000D01*
X557500Y401217D02*
Y405000D01*
X520000Y410000D02*
Y418500D01*
X518500Y408500D02*
X520000Y410000D01*
X518500Y401217D02*
Y408500D01*
X478000Y410500D02*
Y418500D01*
X474500Y407000D02*
X478000Y410500D01*
X474500Y400216D02*
Y407000D01*
X435000Y418500D02*
X435500Y418000D01*
Y411000D02*
Y418000D01*
X431500Y407000D02*
X435500Y411000D01*
X431500Y400716D02*
Y407000D01*
X392500Y410500D02*
Y418500D01*
X389000Y407000D02*
X392500Y410500D01*
X389000Y400216D02*
Y407000D01*
X350500Y418000D02*
X351000Y418500D01*
X350500Y411500D02*
Y418000D01*
X347000Y408000D02*
X350500Y411500D01*
X347000Y400216D02*
Y408000D01*
X305000Y401717D02*
Y408000D01*
X262300Y418000D02*
X262800Y418500D01*
X264000Y401717D02*
Y405300D01*
X567500Y430000D02*
Y446900D01*
X524500Y430000D02*
Y447400D01*
X520000Y425500D02*
X524500Y430000D01*
X520000Y418500D02*
Y425500D01*
X481500Y431000D02*
Y447900D01*
X478000Y427500D02*
X481500Y431000D01*
X478000Y418500D02*
Y427500D01*
X439500Y430000D02*
Y447900D01*
X435000Y425500D02*
X439500Y430000D01*
X435000Y418500D02*
Y425500D01*
X397000Y430500D02*
Y448400D01*
X392500Y426000D02*
X397000Y430500D01*
X392500Y418500D02*
Y426000D01*
X355500Y430500D02*
Y448900D01*
X351000Y426000D02*
X355500Y430500D01*
X351000Y418500D02*
Y426000D01*
X315500Y431500D02*
Y448900D01*
X272000Y435200D02*
Y449400D01*
X262800Y427000D02*
X267800Y432000D01*
X262800Y418500D02*
Y427000D01*
X524000Y446900D02*
X524500Y447400D01*
X481500Y447900D02*
X482000Y447400D01*
X271500Y448900D02*
X272000Y449400D01*
D29*
X574400Y418200D02*
D03*
X488000Y418500D02*
D03*
X316400Y418200D02*
D03*
X576600Y180600D02*
D03*
X534000D02*
D03*
X491400Y181800D02*
D03*
X448500Y183000D02*
D03*
X405000D02*
D03*
X362500D02*
D03*
X319400D02*
D03*
X276000D02*
D03*
X531600Y418200D02*
D03*
X445800Y418800D02*
D03*
X402800D02*
D03*
X359600D02*
D03*
X272800Y418500D02*
D03*
D30*
X564400Y418200D02*
D03*
X554400D02*
D03*
X478000Y418500D02*
D03*
X468000D02*
D03*
X296400Y418200D02*
D03*
X306400D02*
D03*
X556600Y180600D02*
D03*
X566600D02*
D03*
X514000D02*
D03*
X524000D02*
D03*
X471400Y181800D02*
D03*
X481400D02*
D03*
X428500Y183000D02*
D03*
X438500D02*
D03*
X385000D02*
D03*
X395000D02*
D03*
X342500D02*
D03*
X352500D02*
D03*
X299400D02*
D03*
X309400D02*
D03*
X256000D02*
D03*
X266000D02*
D03*
X511600Y418200D02*
D03*
X521600D02*
D03*
X425800Y418800D02*
D03*
X435800D02*
D03*
X382800D02*
D03*
X392800D02*
D03*
X339600D02*
D03*
X349600D02*
D03*
X252800Y418500D02*
D03*
X262800D02*
D03*
D31*
X243000Y155500D02*
D03*
X587000Y157500D02*
D03*
X586500Y450500D02*
D03*
X243500Y451000D02*
D03*
D32*
X578400Y325800D02*
D03*
X577800Y268200D02*
D03*
D33*
X249600Y285600D02*
D03*
Y299379D02*
D03*
D34*
Y313159D02*
D03*
D35*
X368000Y256500D02*
D03*
X378000D02*
D03*
X388000D02*
D03*
X398000D02*
D03*
X408000D02*
D03*
X418000D02*
D03*
X428000D02*
D03*
X438000D02*
D03*
X368000Y286500D02*
D03*
X378000D02*
D03*
X388000D02*
D03*
X398000D02*
D03*
X408000D02*
D03*
X418000D02*
D03*
X428000D02*
D03*
X438000D02*
D03*
Y337000D02*
D03*
X428000D02*
D03*
X418000D02*
D03*
X408000D02*
D03*
X398000D02*
D03*
X388000D02*
D03*
X378000D02*
D03*
X368000D02*
D03*
X438000Y307000D02*
D03*
X428000D02*
D03*
X418000D02*
D03*
X408000D02*
D03*
X398000D02*
D03*
X388000D02*
D03*
X378000D02*
D03*
X368000D02*
D03*
D36*
X270000Y157200D02*
D03*
X312400Y157100D02*
D03*
X351900Y157600D02*
D03*
X395900Y157100D02*
D03*
X437900D02*
D03*
X480400D02*
D03*
X522400D02*
D03*
X564900D02*
D03*
X315500Y448900D02*
D03*
X355500D02*
D03*
X397000Y448400D02*
D03*
X439500Y447900D02*
D03*
X481500D02*
D03*
X524500Y447400D02*
D03*
X567500Y446900D02*
D03*
X272000Y449400D02*
D03*
D37*
X260000Y157200D02*
D03*
X302400Y157100D02*
D03*
X341900Y157600D02*
D03*
X385900Y157100D02*
D03*
X427900D02*
D03*
X470400D02*
D03*
X512400D02*
D03*
X554900D02*
D03*
X305500Y448900D02*
D03*
X345500D02*
D03*
X387000Y448400D02*
D03*
X429500Y447900D02*
D03*
X471500D02*
D03*
X514500Y447400D02*
D03*
X557500Y446900D02*
D03*
X262000Y449400D02*
D03*
D38*
X561500Y194783D02*
D03*
Y230217D02*
D03*
X519500Y195283D02*
D03*
Y230716D02*
D03*
X479000Y196783D02*
D03*
Y232217D02*
D03*
X435500Y196283D02*
D03*
Y231716D02*
D03*
X307000Y197283D02*
D03*
Y232716D02*
D03*
X350000Y197283D02*
D03*
Y232716D02*
D03*
X394000Y196783D02*
D03*
Y232217D02*
D03*
X263000Y197283D02*
D03*
Y232716D02*
D03*
X264000Y401717D02*
D03*
Y366283D02*
D03*
X557500Y401217D02*
D03*
Y365784D02*
D03*
X518500Y401217D02*
D03*
Y365784D02*
D03*
X474500Y400216D02*
D03*
Y364784D02*
D03*
X431500Y400716D02*
D03*
Y365283D02*
D03*
X389000Y400216D02*
D03*
Y364784D02*
D03*
X305000Y401717D02*
D03*
Y366283D02*
D03*
X347000Y400216D02*
D03*
Y364784D02*
D03*
D39*
X576600Y190802D02*
D03*
Y236400D02*
D03*
X533000Y193500D02*
D03*
Y239098D02*
D03*
X492000Y194000D02*
D03*
Y239598D02*
D03*
X449500Y193902D02*
D03*
Y239500D02*
D03*
X407000Y193902D02*
D03*
Y239500D02*
D03*
X363000Y193500D02*
D03*
Y239098D02*
D03*
X320000Y194000D02*
D03*
Y239598D02*
D03*
X276500Y194000D02*
D03*
Y239598D02*
D03*
X573600Y404400D02*
D03*
Y358802D02*
D03*
X531500Y401000D02*
D03*
Y355402D02*
D03*
X488000Y401000D02*
D03*
Y355402D02*
D03*
X446000Y401598D02*
D03*
Y356000D02*
D03*
X402500Y402098D02*
D03*
Y356500D02*
D03*
X360000Y401598D02*
D03*
Y356000D02*
D03*
X278000Y400598D02*
D03*
Y355000D02*
D03*
X318500Y401098D02*
D03*
Y355500D02*
D03*
M02*
