G04*
G04 #@! TF.GenerationSoftware,Altium Limited,CircuitMaker,2.2.1 (6)*
G04*
G04 Layer_Color=15132400*
%FSLAX25Y25*%
%MOIN*%
G70*
G04*
G04 #@! TF.SameCoordinates,C7A46A66-803E-4EFA-A11E-2D709BABBFBD*
G04*
G04*
G04 #@! TF.FilePolarity,Positive*
G04*
G01*
G75*
%ADD10C,0.01000*%
D10*
X418100Y262500D02*
Y337500D01*
Y262500D02*
X468100D01*
Y337500D01*
X418100D02*
X468100D01*
X362200D02*
X412200D01*
Y262500D02*
Y337500D01*
X362200Y262500D02*
X412200D01*
X362200D02*
Y337500D01*
X550689Y246689D02*
Y270311D01*
Y246689D02*
X574311D01*
Y270311D01*
X550689D02*
X574311D01*
X592789Y296276D02*
Y319898D01*
Y296276D02*
X616411D01*
Y319898D01*
X592789D02*
X616411D01*
X508547Y296276D02*
Y319898D01*
Y296276D02*
X532169D01*
Y319898D01*
X508547D02*
X532169D01*
X550689Y346602D02*
Y370224D01*
Y346602D02*
X574311D01*
Y370224D01*
X550689D02*
X574311D01*
X255689Y246689D02*
Y270311D01*
Y246689D02*
X279311D01*
Y270311D01*
X255689D02*
X279311D01*
X255689Y346602D02*
Y370224D01*
Y346602D02*
X279311D01*
Y370224D01*
X255689D02*
X279311D01*
X298047Y296276D02*
Y319898D01*
Y296276D02*
X321669D01*
Y319898D01*
X298047D02*
X321669D01*
X213189Y296276D02*
Y319898D01*
Y296276D02*
X236811D01*
Y319898D01*
X213189D02*
X236811D01*
X383100Y417000D02*
Y425000D01*
Y417000D02*
X385100Y415000D01*
X413100D01*
X383100Y425000D02*
X413100D01*
Y415000D02*
Y425000D01*
X420000Y417000D02*
Y425000D01*
Y417000D02*
X422000Y415000D01*
X450000D01*
X420000Y425000D02*
X450000D01*
Y415000D02*
Y425000D01*
X262501Y290698D02*
X261502Y291698D01*
X259502D01*
X258503Y290698D01*
Y289699D01*
X259502Y288699D01*
X261502D01*
X262501Y287699D01*
Y286700D01*
X261502Y285700D01*
X259502D01*
X258503Y286700D01*
X264501Y291698D02*
Y285700D01*
X266500Y287699D01*
X268499Y285700D01*
Y291698D01*
X270499Y290698D02*
X271498Y291698D01*
X273498D01*
X274497Y290698D01*
Y289699D01*
X273498Y288699D01*
X274497Y287699D01*
Y286700D01*
X273498Y285700D01*
X271498D01*
X270499Y286700D01*
Y287699D01*
X271498Y288699D01*
X270499Y289699D01*
Y290698D01*
X271498Y288699D02*
X273498D01*
X305801Y340298D02*
X304802Y341298D01*
X302802D01*
X301803Y340298D01*
Y339299D01*
X302802Y338299D01*
X304802D01*
X305801Y337299D01*
Y336300D01*
X304802Y335300D01*
X302802D01*
X301803Y336300D01*
X307801Y341298D02*
Y335300D01*
X309800Y337299D01*
X311799Y335300D01*
Y341298D01*
X313799D02*
X317797D01*
Y340298D01*
X313799Y336300D01*
Y335300D01*
X221001Y340298D02*
X220002Y341298D01*
X218002D01*
X217003Y340298D01*
Y339299D01*
X218002Y338299D01*
X220002D01*
X221001Y337299D01*
Y336300D01*
X220002Y335300D01*
X218002D01*
X217003Y336300D01*
X223001Y341298D02*
Y335300D01*
X225000Y337299D01*
X226999Y335300D01*
Y341298D01*
X232997D02*
X230998Y340298D01*
X228999Y338299D01*
Y336300D01*
X229998Y335300D01*
X231998D01*
X232997Y336300D01*
Y337299D01*
X231998Y338299D01*
X228999D01*
X263501Y390598D02*
X262502Y391598D01*
X260502D01*
X259503Y390598D01*
Y389599D01*
X260502Y388599D01*
X262502D01*
X263501Y387599D01*
Y386600D01*
X262502Y385600D01*
X260502D01*
X259503Y386600D01*
X265501Y391598D02*
Y385600D01*
X267500Y387599D01*
X269499Y385600D01*
Y391598D01*
X275497D02*
X271499D01*
Y388599D01*
X273498Y389599D01*
X274498D01*
X275497Y388599D01*
Y386600D01*
X274498Y385600D01*
X272498D01*
X271499Y386600D01*
X558501Y290698D02*
X557502Y291698D01*
X555502D01*
X554503Y290698D01*
Y289699D01*
X555502Y288699D01*
X557502D01*
X558501Y287699D01*
Y286700D01*
X557502Y285700D01*
X555502D01*
X554503Y286700D01*
X560501Y291698D02*
Y285700D01*
X562500Y287699D01*
X564499Y285700D01*
Y291698D01*
X569498Y285700D02*
Y291698D01*
X566499Y288699D01*
X570497D01*
X600501Y340298D02*
X599502Y341298D01*
X597502D01*
X596503Y340298D01*
Y339299D01*
X597502Y338299D01*
X599502D01*
X600501Y337299D01*
Y336300D01*
X599502Y335300D01*
X597502D01*
X596503Y336300D01*
X602501Y341298D02*
Y335300D01*
X604500Y337299D01*
X606499Y335300D01*
Y341298D01*
X608499Y340298D02*
X609498Y341298D01*
X611498D01*
X612497Y340298D01*
Y339299D01*
X611498Y338299D01*
X610498D01*
X611498D01*
X612497Y337299D01*
Y336300D01*
X611498Y335300D01*
X609498D01*
X608499Y336300D01*
X516301Y340298D02*
X515302Y341298D01*
X513302D01*
X512303Y340298D01*
Y339299D01*
X513302Y338299D01*
X515302D01*
X516301Y337299D01*
Y336300D01*
X515302Y335300D01*
X513302D01*
X512303Y336300D01*
X518301Y341298D02*
Y335300D01*
X520300Y337299D01*
X522299Y335300D01*
Y341298D01*
X528297Y335300D02*
X524299D01*
X528297Y339299D01*
Y340298D01*
X527298Y341298D01*
X525298D01*
X524299Y340298D01*
X559501Y390598D02*
X558501Y391598D01*
X556502D01*
X555502Y390598D01*
Y389599D01*
X556502Y388599D01*
X558501D01*
X559501Y387599D01*
Y386600D01*
X558501Y385600D01*
X556502D01*
X555502Y386600D01*
X561500Y391598D02*
Y385600D01*
X563500Y387599D01*
X565499Y385600D01*
Y391598D01*
X567498Y385600D02*
X569498D01*
X568498D01*
Y391598D01*
X567498Y390598D01*
X378453Y345998D02*
Y341000D01*
X380952D01*
X381785Y341833D01*
Y345165D01*
X380952Y345998D01*
X378453D01*
X383451Y341000D02*
X385117D01*
X384284D01*
Y344332D01*
X383451D01*
X387616Y341000D02*
X390116D01*
X390949Y341833D01*
X390116Y342666D01*
X388450D01*
X387616Y343499D01*
X388450Y344332D01*
X390949D01*
X395947Y341000D02*
X392615D01*
X395947Y344332D01*
Y345165D01*
X395114Y345998D01*
X393448D01*
X392615Y345165D01*
X435186Y345998D02*
Y341000D01*
X437685D01*
X438518Y341833D01*
Y345165D01*
X437685Y345998D01*
X435186D01*
X440184Y341000D02*
X441850D01*
X441017D01*
Y344332D01*
X440184D01*
X444350Y341000D02*
X446849D01*
X447682Y341833D01*
X446849Y342666D01*
X445183D01*
X444350Y343499D01*
X445183Y344332D01*
X447682D01*
X449348Y341000D02*
X451014D01*
X450181D01*
Y345998D01*
X449348Y345165D01*
M02*
