G04*
G04 #@! TF.GenerationSoftware,Altium Limited,CircuitMaker,2.2.1 (6)*
G04*
G04 Layer_Physical_Order=1*
G04 Layer_Color=25308*
%FSLAX25Y25*%
%MOIN*%
G70*
G04*
G04 #@! TF.SameCoordinates,C7A46A66-803E-4EFA-A11E-2D709BABBFBD*
G04*
G04*
G04 #@! TF.FilePolarity,Positive*
G04*
G01*
G75*
%ADD10C,0.01000*%
%ADD11R,0.07087X0.11811*%
%ADD21C,0.05905*%
%ADD22R,0.07087X0.07087*%
%ADD23C,0.07087*%
%ADD24C,0.06000*%
%ADD25R,0.06500X0.06500*%
%ADD26C,0.06500*%
%ADD27C,0.06299*%
%ADD28P,0.06818X8X22.5*%
%ADD29C,0.15000*%
D10*
X277500Y290000D02*
X278500D01*
X301000Y290173D01*
X346000Y203000D02*
X395500D01*
X335500Y192500D02*
X346000Y203000D01*
X331500Y192500D02*
X335500D01*
X351000Y210000D02*
X362100D01*
X338500Y222500D02*
X351000Y210000D01*
X331500Y222500D02*
X338500D01*
X257500Y310500D02*
X267500Y300500D01*
Y265000D02*
Y300500D01*
X258642Y256142D02*
X267500Y265000D01*
X579000Y422500D02*
X626500Y375000D01*
Y319500D02*
Y375000D01*
X597173Y290173D02*
X626500Y319500D01*
X529217Y334185D02*
X530500Y335469D01*
Y375000D01*
Y335469D02*
X571358Y376327D01*
X520500Y310500D02*
Y432543D01*
X511500Y301500D02*
X520500Y310500D01*
X511500Y290173D02*
Y301500D01*
X508043Y445000D02*
X520500Y432543D01*
X524500Y217500D02*
X529500Y222500D01*
X473500Y217500D02*
X524500D01*
X456500Y200500D02*
X473500Y217500D01*
X514500Y207500D02*
X529500Y192500D01*
X475100Y207500D02*
X514500D01*
X472600Y210000D02*
X475100Y207500D01*
X271000Y295500D02*
X285500Y310000D01*
X302717D01*
X318717Y326000D01*
X201500Y343500D02*
X239000Y381000D01*
X201500Y206000D02*
Y343500D01*
X239000Y381000D02*
Y403500D01*
X279000Y402000D02*
Y403500D01*
X265185Y388185D02*
X279000Y402000D01*
X254685Y388185D02*
X265185D01*
X284000Y397000D02*
Y407000D01*
X276358Y389358D02*
X284000Y397000D01*
X276358Y376327D02*
Y389358D01*
X284000Y407000D02*
X294000Y417000D01*
X239000Y408000D02*
X249000Y418000D01*
X239000Y403500D02*
Y408000D01*
X249000Y418000D02*
X283500D01*
X530500Y375000D02*
Y377000D01*
X455000Y399500D02*
X496000Y358500D01*
Y256000D02*
Y358500D01*
Y256000D02*
X499500Y252500D01*
X457100Y390000D02*
X489500Y357600D01*
Y253500D02*
Y357600D01*
Y253500D02*
X499500Y243500D01*
X595000Y212500D02*
X595742Y213242D01*
Y290173D02*
X597173D01*
X277500Y445000D02*
X508043D01*
X269500Y437000D02*
X277500Y445000D01*
X271000Y284500D02*
Y295500D01*
Y284500D02*
X276358Y279142D01*
Y276413D02*
Y279142D01*
X387200Y317300D02*
X416000Y288500D01*
Y204500D02*
Y288500D01*
Y204500D02*
X428000Y192500D01*
X387200Y317300D02*
Y330000D01*
X428000Y192500D02*
X499500D01*
X295000Y246000D02*
X301500Y252500D01*
X295000Y202703D02*
Y246000D01*
Y202703D02*
X301500Y196203D01*
Y192500D02*
Y196203D01*
Y220000D02*
X310000Y211500D01*
Y191500D02*
Y211500D01*
X299000Y433500D02*
X312500Y420000D01*
X241000Y221500D02*
Y322858D01*
Y221500D02*
X250000Y212500D01*
X241000Y322858D02*
X258642Y340500D01*
X201500Y206000D02*
X235000Y172500D01*
X455000Y420000D02*
Y421500D01*
X437000Y439500D02*
X455000Y421500D01*
X315000Y439500D02*
X437000D01*
X309000Y433500D02*
X315000Y439500D01*
X312500Y420000D02*
X378100D01*
X283500Y418000D02*
X299000Y433500D01*
X424000Y420000D02*
X425000D01*
X258642Y340500D02*
X289000Y370858D01*
Y403500D01*
X258642Y240587D02*
Y256142D01*
X216142Y290173D02*
Y294858D01*
X207500Y303500D02*
X216142Y294858D01*
X207500Y303500D02*
Y341000D01*
X254685Y388185D01*
X535000Y422500D02*
X579000D01*
X564000Y315000D02*
X570000D01*
X553642Y325358D02*
X564000Y315000D01*
X553642Y325358D02*
Y340500D01*
X613458Y326000D02*
Y334227D01*
X571358Y376327D02*
X613458Y334227D01*
X595742Y213242D02*
Y290173D01*
X573055Y260000D02*
X590000D01*
X553642Y240587D02*
X573055Y260000D01*
X529217Y326000D02*
Y334185D01*
X546500Y333358D02*
X553642Y340500D01*
X546500Y231000D02*
Y333358D01*
X455000Y399500D02*
Y420000D01*
X288000Y220500D02*
Y277173D01*
X280000Y212500D02*
X288000Y220500D01*
Y277173D02*
X301000Y290173D01*
X388100Y418400D02*
X443500Y363000D01*
X473500D01*
X388100Y418400D02*
Y420000D01*
X498000Y232500D02*
X499500D01*
X482500Y248000D02*
X498000Y232500D01*
X482500Y248000D02*
Y354000D01*
X473500Y363000D02*
X482500Y354000D01*
X391500Y372000D02*
X408600Y389100D01*
X353500Y372000D02*
X391500D01*
X408600Y389100D02*
Y390000D01*
X318717Y326000D02*
X328000Y316717D01*
Y279000D02*
Y316717D01*
X301500Y252500D02*
X328000Y279000D01*
X529500Y180000D02*
Y182500D01*
X521500Y172000D02*
X529500Y180000D01*
X346000Y172000D02*
X521500D01*
X335500Y182500D02*
X346000Y172000D01*
X331500Y182500D02*
X335500D01*
X301500Y220000D02*
Y222500D01*
X330500Y183500D02*
X331500Y182500D01*
X318000Y183500D02*
X330500D01*
X310000Y191500D02*
X318000Y183500D01*
X327547Y186953D02*
X340547D01*
X316500Y198000D02*
X327547Y186953D01*
X316500Y198000D02*
Y217500D01*
X301500Y232500D02*
X316500Y217500D01*
X345000Y182500D02*
X499500D01*
X340547Y186953D02*
X345000Y182500D01*
X525500Y232500D02*
X529500D01*
X520500Y227500D02*
X525500Y232500D01*
X457100Y227500D02*
X520500D01*
X439600Y210000D02*
X457100Y227500D01*
X433600Y200500D02*
X456500D01*
X424100Y210000D02*
X433600Y200500D01*
X331500Y232500D02*
X355100D01*
X377600Y210000D01*
X529500Y182500D02*
X539500Y172500D01*
X550000D01*
X321500D02*
X331500Y182500D01*
X280000Y172500D02*
X321500D01*
X423100Y330000D02*
Y349000D01*
X613458Y319460D02*
Y326000D01*
X571358Y277360D02*
X613458Y319460D01*
X571358Y276413D02*
Y277360D01*
X233858Y333827D02*
X276358Y376327D01*
X233858Y326000D02*
Y333827D01*
X433100Y330000D02*
Y343500D01*
X331500Y252500D02*
X345500Y266500D01*
Y364000D01*
X353500Y372000D01*
X362100Y335100D02*
X367200Y330000D01*
X362100Y335100D02*
Y350000D01*
X499500Y242500D02*
Y243500D01*
X529500Y252500D02*
Y254500D01*
X502500Y281500D02*
X529500Y254500D01*
X502500Y281500D02*
Y360100D01*
X472600Y390000D02*
X502500Y360100D01*
X402500Y210000D02*
X408600D01*
X395500Y203000D02*
X402500Y210000D01*
X331500Y242500D02*
X360600D01*
X393100Y210000D01*
X511500Y288500D02*
Y290173D01*
Y288500D02*
X537500Y262500D01*
Y225000D02*
Y262500D01*
Y225000D02*
X550000Y212500D01*
X546500Y231000D02*
X565000Y212500D01*
X553642Y238858D02*
Y240587D01*
Y238858D02*
X580000Y212500D01*
X216142Y231358D02*
Y290173D01*
Y231358D02*
X235000Y212500D01*
X258642Y218858D02*
Y240587D01*
Y218858D02*
X265000Y212500D01*
X463100Y339500D02*
X472600Y349000D01*
X463100Y330000D02*
Y339500D01*
X453100Y345000D02*
X457100Y349000D01*
X453100Y330000D02*
Y345000D01*
X453100Y330000D02*
X453100Y330000D01*
X453100Y330000D02*
Y330000D01*
X433100Y343500D02*
X439600Y350000D01*
X423100Y349000D02*
X424100Y350000D01*
X407200Y330000D02*
X408600Y331400D01*
Y350000D01*
X397200Y330000D02*
Y345900D01*
X393100Y350000D02*
X397200Y345900D01*
X377200Y330000D02*
X377600Y330400D01*
Y350000D01*
X463100Y259500D02*
Y270000D01*
Y259500D02*
X472600Y250000D01*
X453100Y254000D02*
Y270000D01*
Y254000D02*
X457100Y250000D01*
X433100Y256500D02*
Y270000D01*
Y256500D02*
X439600Y250000D01*
X423100Y251000D02*
Y270000D01*
Y251000D02*
X424100Y250000D01*
X407200Y251400D02*
Y270000D01*
Y251400D02*
X408600Y250000D01*
X393100Y265900D02*
X397200Y270000D01*
X393100Y250000D02*
Y265900D01*
X377200Y250400D02*
Y270000D01*
Y250400D02*
X377600Y250000D01*
X362100Y264900D02*
X367200Y270000D01*
X362100Y250000D02*
Y264900D01*
X550000Y172500D02*
X565000D01*
X580000D01*
X595000D01*
X265000D02*
X280000D01*
X250000D02*
X265000D01*
X235000D02*
X250000D01*
D11*
X571358Y276413D02*
D03*
X553642D02*
D03*
Y240587D02*
D03*
X571358D02*
D03*
X613458Y326000D02*
D03*
X595742D02*
D03*
Y290173D02*
D03*
X613458D02*
D03*
X529217Y326000D02*
D03*
X511500D02*
D03*
Y290173D02*
D03*
X529217D02*
D03*
X571358Y376327D02*
D03*
X553642D02*
D03*
Y340500D02*
D03*
X571358D02*
D03*
X276358Y276413D02*
D03*
X258642D02*
D03*
Y240587D02*
D03*
X276358D02*
D03*
Y376327D02*
D03*
X258642D02*
D03*
Y340500D02*
D03*
X276358D02*
D03*
X318717Y326000D02*
D03*
X301000D02*
D03*
Y290173D02*
D03*
X318717D02*
D03*
X233858Y326000D02*
D03*
X216142D02*
D03*
Y290173D02*
D03*
X233858D02*
D03*
D21*
X301500Y182500D02*
D03*
Y192500D02*
D03*
Y202500D02*
D03*
Y212500D02*
D03*
Y222500D02*
D03*
Y232500D02*
D03*
Y242500D02*
D03*
Y252500D02*
D03*
X331500Y182500D02*
D03*
Y192500D02*
D03*
Y202500D02*
D03*
Y212500D02*
D03*
Y222500D02*
D03*
Y232500D02*
D03*
Y242500D02*
D03*
Y252500D02*
D03*
X499500Y182500D02*
D03*
Y192500D02*
D03*
Y202500D02*
D03*
Y212500D02*
D03*
Y222500D02*
D03*
Y232500D02*
D03*
Y242500D02*
D03*
Y252500D02*
D03*
X529500Y182500D02*
D03*
Y192500D02*
D03*
Y202500D02*
D03*
Y212500D02*
D03*
Y222500D02*
D03*
Y232500D02*
D03*
Y242500D02*
D03*
Y252500D02*
D03*
D22*
X423100Y270000D02*
D03*
X367200D02*
D03*
D23*
X433100D02*
D03*
X443100D02*
D03*
X453100D02*
D03*
X463100D02*
D03*
Y330000D02*
D03*
X453100D02*
D03*
X443100D02*
D03*
X433100D02*
D03*
X423100D02*
D03*
X367200D02*
D03*
X377200D02*
D03*
X387200D02*
D03*
X397200D02*
D03*
X407200D02*
D03*
Y270000D02*
D03*
X397200D02*
D03*
X387200D02*
D03*
X377200D02*
D03*
D24*
X278500Y290000D02*
D03*
X595000Y212500D02*
D03*
Y172500D02*
D03*
X580000Y212500D02*
D03*
Y172500D02*
D03*
X565000Y212500D02*
D03*
Y172500D02*
D03*
X550000Y212500D02*
D03*
Y172500D02*
D03*
X294000Y417000D02*
D03*
X530500Y375000D02*
D03*
X257500Y310500D02*
D03*
X535000Y422500D02*
D03*
X570000Y315000D02*
D03*
X590000Y260000D02*
D03*
X378100Y420000D02*
D03*
X455000D02*
D03*
X424100Y390000D02*
D03*
Y350000D02*
D03*
X457100Y210000D02*
D03*
Y250000D02*
D03*
X362100Y390000D02*
D03*
Y350000D02*
D03*
X377600Y390000D02*
D03*
Y350000D02*
D03*
X393100Y390000D02*
D03*
Y350000D02*
D03*
X408600Y390000D02*
D03*
Y350000D02*
D03*
X439600Y390000D02*
D03*
Y350000D02*
D03*
X457100Y390000D02*
D03*
Y350000D02*
D03*
X472600Y390000D02*
D03*
Y350000D02*
D03*
Y250000D02*
D03*
Y210000D02*
D03*
X439600D02*
D03*
Y250000D02*
D03*
X424100Y210000D02*
D03*
Y250000D02*
D03*
X408600Y210000D02*
D03*
Y250000D02*
D03*
X393100Y210000D02*
D03*
Y250000D02*
D03*
X377600Y210000D02*
D03*
Y250000D02*
D03*
X362100Y210000D02*
D03*
Y250000D02*
D03*
X235000Y172500D02*
D03*
Y212500D02*
D03*
X250000Y172500D02*
D03*
Y212500D02*
D03*
X265000Y172500D02*
D03*
Y212500D02*
D03*
X280000Y172500D02*
D03*
Y212500D02*
D03*
D25*
X309000Y403500D02*
D03*
D26*
X299000D02*
D03*
X289000D02*
D03*
X279000D02*
D03*
X269000D02*
D03*
X259000D02*
D03*
X249000D02*
D03*
X239000D02*
D03*
Y433500D02*
D03*
X249000D02*
D03*
X259000D02*
D03*
X269000D02*
D03*
X279000D02*
D03*
X289000D02*
D03*
X299000D02*
D03*
X309000D02*
D03*
D27*
X408100Y420000D02*
D03*
X398100D02*
D03*
X445000D02*
D03*
X435000D02*
D03*
D28*
X388100D02*
D03*
X425000D02*
D03*
D29*
X199500Y173000D02*
D03*
X631000D02*
D03*
Y442500D02*
D03*
X199500D02*
D03*
M02*
