G04*
G04 #@! TF.GenerationSoftware,Altium Limited,CircuitMaker,2.2.1 (6)*
G04*
G04 Layer_Physical_Order=2*
G04 Layer_Color=11436288*
%FSLAX25Y25*%
%MOIN*%
G70*
G04*
G04 #@! TF.SameCoordinates,C7A46A66-803E-4EFA-A11E-2D709BABBFBD*
G04*
G04*
G04 #@! TF.FilePolarity,Positive*
G04*
G01*
G75*
%ADD10C,0.01000*%
%ADD21C,0.05905*%
%ADD22R,0.07087X0.07087*%
%ADD23C,0.07087*%
%ADD24C,0.06000*%
%ADD25R,0.06500X0.06500*%
%ADD26C,0.06500*%
%ADD27C,0.06299*%
%ADD28P,0.06818X8X22.5*%
%ADD29C,0.15000*%
D10*
X528000Y375000D02*
X530500D01*
X483000Y420000D02*
X528000Y375000D01*
X455000Y420000D02*
X483000D01*
X269000Y298846D02*
X278500Y290000D01*
X352500Y221000D02*
Y380400D01*
X334000Y202500D02*
X352500Y221000D01*
X331500Y202500D02*
X334000D01*
X348500Y225000D02*
Y388000D01*
X336000Y212500D02*
X348500Y225000D01*
X331500Y212500D02*
X336000D01*
X300500Y242500D02*
X301500D01*
X293500Y249500D02*
X300500Y242500D01*
X293500Y249500D02*
Y339500D01*
X329000Y175000D02*
X472000D01*
X301500Y202500D02*
X329000Y175000D01*
X477500Y170500D02*
X499500Y192500D01*
X327500Y170500D02*
X477500D01*
X305500Y192500D02*
X327500Y170500D01*
X510500Y237500D02*
X515500Y242500D01*
X484600Y237500D02*
X510500D01*
X457100Y210000D02*
X484600Y237500D01*
X515500Y242500D02*
X529500D01*
X357500Y397000D02*
X370600D01*
X348500Y388000D02*
X357500Y397000D01*
X370600D02*
X377600Y390000D01*
X382500Y401500D02*
X393100Y390900D01*
X355500Y401500D02*
X382500D01*
X293500Y339500D02*
X355500Y401500D01*
X393000Y404000D02*
X398100Y409100D01*
X347000Y404000D02*
X393000D01*
X290500Y347500D02*
X347000Y404000D01*
X393100Y390000D02*
Y390900D01*
X495500Y436500D02*
X544000Y388000D01*
Y319000D02*
Y388000D01*
Y319000D02*
X590000Y273000D01*
Y260000D02*
Y273000D01*
X249000Y403500D02*
X250968Y405468D01*
X254250D01*
X257032Y408250D02*
X294750D01*
X254250Y405468D02*
X257032Y408250D01*
X294000Y418500D02*
X309000Y433500D01*
X294000Y417000D02*
Y418500D01*
X316500Y436500D02*
X495500D01*
X520000Y422500D02*
X535000D01*
X500500Y442000D02*
X520000Y422500D01*
X284000Y442000D02*
X500500D01*
X313609Y439391D02*
X316500Y436500D01*
X295891Y439391D02*
X313609D01*
X290000Y433500D02*
X295891Y439391D01*
X279000Y437000D02*
X284000Y442000D01*
X431000Y434000D02*
X445000Y420000D01*
X320500Y434000D02*
X431000D01*
X294750Y408250D02*
X320500Y434000D01*
X327000Y431500D02*
X423500D01*
X435000Y420000D01*
X299000Y403500D02*
X327000Y431500D01*
X334000Y428500D02*
X416500D01*
X425000Y420000D01*
X309000Y403500D02*
X334000Y428500D01*
X285000Y219000D02*
X301500Y202500D01*
X285000Y219000D02*
Y351500D01*
X360000Y426500D01*
X404500D02*
X408100Y422900D01*
X360000Y426500D02*
X404500D01*
X408100Y420000D02*
Y422900D01*
X269000Y298846D02*
Y403500D01*
X248000Y392500D02*
X259000Y403500D01*
X248000Y320000D02*
Y392500D01*
Y320000D02*
X257500Y310500D01*
X279000Y433500D02*
Y437000D01*
X537000Y447500D02*
X587500Y397000D01*
Y332500D02*
Y397000D01*
X570000Y315000D02*
X587500Y332500D01*
X271500Y447500D02*
X537000D01*
X259000Y435000D02*
X271500Y447500D01*
X259000Y433500D02*
Y435000D01*
X289000Y433500D02*
X290000D01*
X452500Y417500D02*
X455000Y420000D01*
X452500Y412000D02*
Y417500D01*
X402200Y315000D02*
X428100D01*
X387200Y330000D02*
X402200Y315000D01*
X451000Y410500D02*
X452500Y412000D01*
X437000Y410500D02*
X451000D01*
X387200Y360700D02*
X437000Y410500D01*
X387200Y330000D02*
Y360700D01*
X430000Y394500D02*
X481000D01*
X425500Y390000D02*
X430000Y394500D01*
X481000D02*
X539500Y336000D01*
X428100Y315000D02*
X443100Y330000D01*
X301500Y192500D02*
X305500D01*
X290500Y225000D02*
Y347500D01*
Y225000D02*
X301500Y214000D01*
X398100Y409100D02*
Y420000D01*
X301500Y212500D02*
Y214000D01*
X322500Y197500D02*
X483500D01*
X307500Y212500D02*
X322500Y197500D01*
X301500Y212500D02*
X307500D01*
X498500D02*
X499500D01*
X483500Y197500D02*
X498500Y212500D01*
X472000Y175000D02*
X499500Y202500D01*
X506500Y222500D02*
X516000Y213000D01*
Y190500D02*
Y213000D01*
X499500Y222500D02*
X506500D01*
X524000Y182500D02*
X529500D01*
X516000Y190500D02*
X524000Y182500D01*
X424100Y390000D02*
X425500D01*
X533500Y202500D02*
X539500Y208500D01*
X529500Y202500D02*
X533500D01*
X539500Y208500D02*
Y336000D01*
X447500Y356000D02*
X483000D01*
X535500Y303500D01*
X533500Y212500D02*
X535500Y214500D01*
Y303500D01*
X529500Y212500D02*
X533500D01*
X439600Y363900D02*
X447500Y356000D01*
X439600Y363900D02*
Y390000D01*
X352500Y380400D02*
X362100Y390000D01*
D21*
X301500Y182500D02*
D03*
Y192500D02*
D03*
Y202500D02*
D03*
Y212500D02*
D03*
Y222500D02*
D03*
Y232500D02*
D03*
Y242500D02*
D03*
Y252500D02*
D03*
X331500Y182500D02*
D03*
Y192500D02*
D03*
Y202500D02*
D03*
Y212500D02*
D03*
Y222500D02*
D03*
Y232500D02*
D03*
Y242500D02*
D03*
Y252500D02*
D03*
X499500Y182500D02*
D03*
Y192500D02*
D03*
Y202500D02*
D03*
Y212500D02*
D03*
Y222500D02*
D03*
Y232500D02*
D03*
Y242500D02*
D03*
Y252500D02*
D03*
X529500Y182500D02*
D03*
Y192500D02*
D03*
Y202500D02*
D03*
Y212500D02*
D03*
Y222500D02*
D03*
Y232500D02*
D03*
Y242500D02*
D03*
Y252500D02*
D03*
D22*
X423100Y270000D02*
D03*
X367200D02*
D03*
D23*
X433100D02*
D03*
X443100D02*
D03*
X453100D02*
D03*
X463100D02*
D03*
Y330000D02*
D03*
X453100D02*
D03*
X443100D02*
D03*
X433100D02*
D03*
X423100D02*
D03*
X367200D02*
D03*
X377200D02*
D03*
X387200D02*
D03*
X397200D02*
D03*
X407200D02*
D03*
Y270000D02*
D03*
X397200D02*
D03*
X387200D02*
D03*
X377200D02*
D03*
D24*
X278500Y290000D02*
D03*
X595000Y212500D02*
D03*
Y172500D02*
D03*
X580000Y212500D02*
D03*
Y172500D02*
D03*
X565000Y212500D02*
D03*
Y172500D02*
D03*
X550000Y212500D02*
D03*
Y172500D02*
D03*
X294000Y417000D02*
D03*
X530500Y375000D02*
D03*
X257500Y310500D02*
D03*
X535000Y422500D02*
D03*
X570000Y315000D02*
D03*
X590000Y260000D02*
D03*
X378100Y420000D02*
D03*
X455000D02*
D03*
X424100Y390000D02*
D03*
Y350000D02*
D03*
X457100Y210000D02*
D03*
Y250000D02*
D03*
X362100Y390000D02*
D03*
Y350000D02*
D03*
X377600Y390000D02*
D03*
Y350000D02*
D03*
X393100Y390000D02*
D03*
Y350000D02*
D03*
X408600Y390000D02*
D03*
Y350000D02*
D03*
X439600Y390000D02*
D03*
Y350000D02*
D03*
X457100Y390000D02*
D03*
Y350000D02*
D03*
X472600Y390000D02*
D03*
Y350000D02*
D03*
Y250000D02*
D03*
Y210000D02*
D03*
X439600D02*
D03*
Y250000D02*
D03*
X424100Y210000D02*
D03*
Y250000D02*
D03*
X408600Y210000D02*
D03*
Y250000D02*
D03*
X393100Y210000D02*
D03*
Y250000D02*
D03*
X377600Y210000D02*
D03*
Y250000D02*
D03*
X362100Y210000D02*
D03*
Y250000D02*
D03*
X235000Y172500D02*
D03*
Y212500D02*
D03*
X250000Y172500D02*
D03*
Y212500D02*
D03*
X265000Y172500D02*
D03*
Y212500D02*
D03*
X280000Y172500D02*
D03*
Y212500D02*
D03*
D25*
X309000Y403500D02*
D03*
D26*
X299000D02*
D03*
X289000D02*
D03*
X279000D02*
D03*
X269000D02*
D03*
X259000D02*
D03*
X249000D02*
D03*
X239000D02*
D03*
Y433500D02*
D03*
X249000D02*
D03*
X259000D02*
D03*
X269000D02*
D03*
X279000D02*
D03*
X289000D02*
D03*
X299000D02*
D03*
X309000D02*
D03*
D27*
X408100Y420000D02*
D03*
X398100D02*
D03*
X445000D02*
D03*
X435000D02*
D03*
D28*
X388100D02*
D03*
X425000D02*
D03*
D29*
X199500Y173000D02*
D03*
X631000D02*
D03*
Y442500D02*
D03*
X199500D02*
D03*
M02*
