M48
;Layer_Color=6321
;FILE_FORMAT=2:5
INCH,TZ
;TYPE=PLATED
T1F00S00C0.03000
T2F00S00C0.03543
T3F00S00C0.03937
T4F00S00C0.04000
T5F00S00C0.10200
%
T01
X472600Y210000
Y250000
X550000Y212500
X565000
X580000
X595000
Y172500
X580000
X565000
X550000
X590000Y260000
X463100Y270000
X453100
X443100
X433100
X423100
X407200
X397200
X387200
X377200
X367200
X362100Y250000
X377600
X393100
X408600
X424100
X439600
X457100
Y210000
X439600
X424100
X408600
X393100
X377600
X362100
X280000Y212500
X265000
X250000
X235000
Y172500
X250000
X265000
X280000
X278500Y290000
X257500Y310500
X294000Y417000
X378100Y420000
X377600Y390000
X362100
X393100
X408600
X424100
X439600
X457100
X455000Y420000
X457100Y350000
X439600
X424100
X408600
X393100
X377600
X362100
X367200Y330000
X377200
X387200
X397200
X407200
X423100
X433100
X443100
X453100
X463100
X472600Y350000
Y390000
X530500Y375000
X535000Y422500
X570000Y315000
T02
X499500Y182500
Y192500
Y202500
Y212500
Y222500
Y232500
Y242500
Y252500
X529500
Y242500
Y232500
Y222500
Y212500
Y202500
Y192500
Y182500
X331500
Y192500
Y202500
Y212500
Y222500
Y232500
Y242500
Y252500
X301500
Y242500
Y232500
Y222500
Y212500
Y202500
Y192500
Y182500
T03
X388100Y420000
X398100
X408100
X425000
X435000
X445000
T04
X239000Y403500
X249000
X259000
X269000
X279000
X289000
X299000
X309000
Y433500
X299000
X289000
X279000
X269000
X259000
X249000
X239000
T05
X631000Y173000
X199500
Y442500
X631000
M30
