G04*
G04 #@! TF.GenerationSoftware,Altium Limited,CircuitMaker,2.2.1 (6)*
G04*
G04 Layer_Color=25308*
%FSLAX25Y25*%
%MOIN*%
G70*
G04*
G04 #@! TF.SameCoordinates,C7A46A66-803E-4EFA-A11E-2D709BABBFBD*
G04*
G04*
G04 #@! TF.FilePolarity,Positive*
G04*
G01*
G75*
%ADD21C,0.05905*%
%ADD22R,0.07087X0.07087*%
%ADD23C,0.07087*%
%ADD24C,0.06000*%
%ADD25R,0.06500X0.06500*%
%ADD26C,0.06500*%
%ADD27C,0.06299*%
%ADD28P,0.06818X8X22.5*%
%ADD29C,0.15000*%
D21*
X301500Y182500D02*
D03*
Y192500D02*
D03*
Y202500D02*
D03*
Y212500D02*
D03*
Y222500D02*
D03*
Y232500D02*
D03*
Y242500D02*
D03*
Y252500D02*
D03*
X331500Y182500D02*
D03*
Y192500D02*
D03*
Y202500D02*
D03*
Y212500D02*
D03*
Y222500D02*
D03*
Y232500D02*
D03*
Y242500D02*
D03*
Y252500D02*
D03*
X499500Y182500D02*
D03*
Y192500D02*
D03*
Y202500D02*
D03*
Y212500D02*
D03*
Y222500D02*
D03*
Y232500D02*
D03*
Y242500D02*
D03*
Y252500D02*
D03*
X529500Y182500D02*
D03*
Y192500D02*
D03*
Y202500D02*
D03*
Y212500D02*
D03*
Y222500D02*
D03*
Y232500D02*
D03*
Y242500D02*
D03*
Y252500D02*
D03*
D22*
X423100Y270000D02*
D03*
X367200D02*
D03*
D23*
X433100D02*
D03*
X443100D02*
D03*
X453100D02*
D03*
X463100D02*
D03*
Y330000D02*
D03*
X453100D02*
D03*
X443100D02*
D03*
X433100D02*
D03*
X423100D02*
D03*
X367200D02*
D03*
X377200D02*
D03*
X387200D02*
D03*
X397200D02*
D03*
X407200D02*
D03*
Y270000D02*
D03*
X397200D02*
D03*
X387200D02*
D03*
X377200D02*
D03*
D24*
X278500Y290000D02*
D03*
X595000Y212500D02*
D03*
Y172500D02*
D03*
X580000Y212500D02*
D03*
Y172500D02*
D03*
X565000Y212500D02*
D03*
Y172500D02*
D03*
X550000Y212500D02*
D03*
Y172500D02*
D03*
X294000Y417000D02*
D03*
X530500Y375000D02*
D03*
X257500Y310500D02*
D03*
X535000Y422500D02*
D03*
X570000Y315000D02*
D03*
X590000Y260000D02*
D03*
X378100Y420000D02*
D03*
X455000D02*
D03*
X424100Y390000D02*
D03*
Y350000D02*
D03*
X457100Y210000D02*
D03*
Y250000D02*
D03*
X362100Y390000D02*
D03*
Y350000D02*
D03*
X377600Y390000D02*
D03*
Y350000D02*
D03*
X393100Y390000D02*
D03*
Y350000D02*
D03*
X408600Y390000D02*
D03*
Y350000D02*
D03*
X439600Y390000D02*
D03*
Y350000D02*
D03*
X457100Y390000D02*
D03*
Y350000D02*
D03*
X472600Y390000D02*
D03*
Y350000D02*
D03*
Y250000D02*
D03*
Y210000D02*
D03*
X439600D02*
D03*
Y250000D02*
D03*
X424100Y210000D02*
D03*
Y250000D02*
D03*
X408600Y210000D02*
D03*
Y250000D02*
D03*
X393100Y210000D02*
D03*
Y250000D02*
D03*
X377600Y210000D02*
D03*
Y250000D02*
D03*
X362100Y210000D02*
D03*
Y250000D02*
D03*
X235000Y172500D02*
D03*
Y212500D02*
D03*
X250000Y172500D02*
D03*
Y212500D02*
D03*
X265000Y172500D02*
D03*
Y212500D02*
D03*
X280000Y172500D02*
D03*
Y212500D02*
D03*
D25*
X309000Y403500D02*
D03*
D26*
X299000D02*
D03*
X289000D02*
D03*
X279000D02*
D03*
X269000D02*
D03*
X259000D02*
D03*
X249000D02*
D03*
X239000D02*
D03*
Y433500D02*
D03*
X249000D02*
D03*
X259000D02*
D03*
X269000D02*
D03*
X279000D02*
D03*
X289000D02*
D03*
X299000D02*
D03*
X309000D02*
D03*
D27*
X408100Y420000D02*
D03*
X398100D02*
D03*
X445000D02*
D03*
X435000D02*
D03*
D28*
X388100D02*
D03*
X425000D02*
D03*
D29*
X199500Y173000D02*
D03*
X631000D02*
D03*
Y442500D02*
D03*
X199500D02*
D03*
M02*
